<?xml version="1.0" encoding="UTF-8"?>
<svg width="16px" height="16px" viewBox="0 0 16 16" version="1.1" xmlns="http://www.w3.org/2000/svg" xmlns:xlink="http://www.w3.org/1999/xlink">
    <!-- Generator: Sketch 59 (86127) - https://sketch.com -->
    <title>没有网络</title>
    <desc>Created with Sketch.</desc>
    <g id="规范及控件" stroke="none" stroke-width="1" fill="none" fill-rule="evenodd">
        <g id="切图-蓝" transform="translate(-961.000000, -157.000000)">
            <g id="没有网络_export" transform="translate(961.000000, 157.000000)">
                <g id="没有网络">
                    <g id="网络_export备份">
                        <polygon id="Path" points="16 0 0 0 0 16 16 16"></polygon>
                        <path d="M8,3.454 C8.828,3.454 9.5,4.125 9.5,4.954 C9.5,5.606 9.081,6.156 8.5,6.362 L8.5,6.362 L8.5,9.454 L12.5,9.454 C13.053,9.454 13.5,9.901 13.5,10.454 L13.5,10.454 L13.5,13.454 C13.5,14.007 13.053,14.454 12.5,14.454 L12.5,14.454 L3.5,14.454 C2.948,14.454 2.5,14.007 2.5,13.454 L2.5,13.454 L2.5,10.454 C2.5,9.901 2.948,9.454 3.5,9.454 L3.5,9.454 L7.5,9.454 L7.5,6.362 C6.919,6.156 6.5,5.606 6.5,4.954 C6.5,4.125 7.171,3.454 8,3.454 Z M11.5,11.454 L9.5,11.454 L9.5,12.454 L11.5,12.454 L11.5,11.454 Z M3.952,3.027 L4.712,3.787 C4.444,4.543 4.443,5.371 4.708,6.125 L4.708,6.125 L3.945,6.887 C3.37,5.669 3.372,4.247 3.952,3.027 L3.952,3.027 Z M13.529,1.547 L12.785,2.291 C13.707,3.948 13.706,5.968 12.79,7.623 L13.518,8.351 C14.8,6.268 14.814,3.629 13.529,1.547 Z M11.292,6.125 L12.055,6.887 C12.63,5.669 12.628,4.248 12.048,3.028 L11.288,3.787 C11.557,4.543 11.557,5.37 11.292,6.125 Z M3.215,2.29 L2.471,1.546 C1.186,3.628 1.2,6.268 2.482,8.351 L3.21,7.623 C2.293,5.968 2.293,3.948 3.215,2.29 Z" id="Shape" fill="#7490AB" fill-rule="nonzero"></path>
                        <g id="矩形_1" transform="translate(6.000000, 7.000000)" fill="#FF3232">
                            <polygon id="Path" points="6 3 7 3 7 2 8 2 8 0 6 0 6 1 5 1 5 2 3 2 3 1 2 1 2 0 0 0 0 2 1 2 1 3 2 3 2 5 1 5 1 6 0 6 0 8 2 8 2 7 3 7 3 6 5 6 5 7 6 7 6 8 8 8 8 6 7 6 7 5 6 5"></polygon>
                        </g>
                    </g>
                </g>
            </g>
        </g>
    </g>
</svg>