<?xml version="1.0" encoding="UTF-8"?>
<svg width="30px" height="24px" viewBox="0 0 30 24" version="1.1" xmlns="http://www.w3.org/2000/svg" xmlns:xlink="http://www.w3.org/1999/xlink">
    <!-- Generator: Sketch 59 (86127) - https://sketch.com -->
    <title>连接中</title>
    <desc>Created with Sketch.</desc>
    <g id="规范及控件" stroke="none" stroke-width="1" fill="none" fill-rule="evenodd">
        <g id="底部栏" transform="translate(-186.000000, -230.000000)">
            <g id="网络_export备份-copy-4" transform="translate(186.000000, 230.000000)">
                <g>
                    <g id="断开" fill="#EC9504">
                        <rect id="Rectangle" x="0" y="0" width="30" height="24"></rect>
                    </g>
                    <path d="M20.8030769,8.65846153 C20.510031,8.95735747 20.1090481,9.12577606 19.6904615,9.12577606 C19.271875,9.12577606 18.8708921,8.95735747 18.5778462,8.65846153 C17.9637286,8.03160133 17.9637286,7.02870636 18.5778462,6.40184616 C18.8708921,6.10295022 19.271875,5.93453163 19.6904615,5.93453163 C20.1090481,5.93453163 20.510031,6.10295022 20.8030769,6.40184616 C21.4171945,7.02870636 21.4171945,8.03160133 20.8030769,8.65846153 L20.8030769,8.65846153 Z M11.4553846,15.8818462 C11.1989051,15.6201984 10.847928,15.4727639 10.4815385,15.4727639 C10.115149,15.4727639 9.7641718,15.6201984 9.50769231,15.8818462 C8.97002451,16.43031 8.97002451,17.3081516 9.50769231,17.8566154 C10.0455385,18.4018462 10.9175385,18.4018462 11.4553846,17.8566154 C11.9934547,17.3080765 11.9934547,16.4297696 11.4553846,15.8812308 L11.4553846,15.8818462 Z M18.9956923,17.5741538 C18.6116544,17.1824239 18.6116544,16.5554223 18.9956923,16.1636923 C19.1788879,15.97696 19.4294865,15.8717525 19.6910769,15.8717525 C19.9526673,15.8717525 20.203266,15.97696 20.3864615,16.1636923 C20.7704615,16.5532308 20.7704615,17.1852308 20.3864615,17.5741538 C20.203266,17.7608861 19.9526673,17.8660937 19.6910769,17.8660937 C19.4294865,17.8660937 19.1788879,17.7608861 18.9956923,17.5741538 L18.9956923,17.5741538 Z M11.5938462,8.65846153 C12.2079637,8.03160133 12.2079637,7.02870636 11.5938462,6.40184616 C11.3007778,6.10275866 10.8996621,5.9342177 10.4809231,5.9342177 C10.062184,5.9342177 9.66106833,6.10275866 9.368,6.40184616 C8.75388244,7.02870636 8.75388244,8.03160133 9.368,8.65846153 C9.66106833,8.95754903 10.062184,9.12608999 10.4809231,9.12608999 C10.8996621,9.12608999 11.3007778,8.95754903 11.5938462,8.65846153 L11.5938462,8.65846153 Z M16.6596923,5.59569231 C16.6596923,6.47753847 15.9550769,7.192 15.0855385,7.192 C14.2166154,7.192 13.512,6.47753847 13.512,5.59569231 C13.512,4.71446153 14.2166154,4 15.0855385,4 C15.9550769,4 16.6596923,4.71446153 16.6596923,5.59569231 L16.6596923,5.59569231 Z M15.0855385,17.6061538 C14.4332308,17.6061538 13.9052308,18.1415385 13.9052308,18.8030769 C13.9052308,19.464 14.4338462,20 15.0855385,20 C15.7378462,20 16.2658462,19.4646154 16.2658462,18.8030769 C16.2658462,18.1421538 15.7378462,17.6061538 15.0855385,17.6061538 L15.0855385,17.6061538 Z M21.5975385,12.9969231 C21.1630769,12.9969231 20.8110769,12.64 20.8110769,12.1993846 C20.8110769,11.7587692 21.1630769,11.4018462 21.5975385,11.4018462 C22.0326154,11.4018462 22.3852308,11.7587692 22.3846162,12.1993846 C22.3846162,12.64 22.032,12.9975385 21.5975385,12.9975385 L21.5975385,12.9969231 Z M10.1476923,12.2 C10.1476923,11.3187692 9.44307692,10.6043061 8.57353847,10.6043061 C7.70461539,10.6030769 7,11.3169231 7,12.1993846 C7,13.0806154 7.70461539,13.7950769 8.57353847,13.7950769 C9.44307694,13.7950769 10.1476923,13.0812308 10.1476923,12.1993846 L10.1476923,12.2 Z" id="Shape" fill="#FFFFFF" fill-rule="nonzero"></path>
                </g>
            </g>
        </g>
    </g>
</svg>