<?xml version="1.0" encoding="UTF-8"?>
<svg width="88px" height="88px" viewBox="0 0 88 88" version="1.1" xmlns="http://www.w3.org/2000/svg" xmlns:xlink="http://www.w3.org/1999/xlink">
    <!-- Generator: Sketch 59 (86127) - https://sketch.com -->
    <title>Trade-卖出_export</title>
    <desc>Created with Sketch.</desc>
    <g id="--" stroke="none" stroke-width="1" fill="none" fill-rule="evenodd" opacity="0.729399182">
        <g id="弹窗" transform="translate(-207.000000, -426.000000)" fill="#18683B">
            <g id="Trade-卖出_export_export" transform="translate(207.000000, 426.000000)">
                <g id="Trade-卖出_export">
                    <g id="Trade-卖出">
                        <g id="Group-22-Copy-5">
                            <g id="Group-22-Copy-3" transform="translate(44.109147, 44.064643) rotate(-15.000000) translate(-44.109147, -44.064643) translate(8.609147, 8.064643)">
                                <path d="M35.5674536,54.9827189 C29.9469986,54.9827189 24.902193,52.5831113 21.3639012,48.768866 L13.7078892,48.768866 C18.1833434,56.1636776 26.2940807,61.1350112 35.5674536,61.1350112 C44.8433457,61.1350112 52.9528234,56.1636776 57.427018,48.768866 L49.7722656,48.768866 C46.2339738,52.5831113 41.1879086,54.9827189 35.5674536,54.9827189 M35.5674536,16.3389864 C41.3566986,16.3389864 46.5362842,18.8868419 50.084653,22.8983325 L57.6373756,22.8983325 C53.2097873,15.3125574 44.9869432,10.1892068 35.5674536,10.1892068 C26.1492236,10.1892068 17.9263795,15.3125574 13.4975315,22.8983325 L21.0502541,22.8983325 C24.598623,18.8868419 29.7794682,16.3389864 35.5674536,16.3389864" id="Fill-1"></path>
                                <path d="M65.1458853,43.7690135 L65.1332891,43.796653 C64.5526011,45.9173533 63.732584,47.9727239 62.7009496,49.9175368 L62.6921322,49.9464326 L62.4490243,50.3987146 L62.1983585,50.8472277 L62.1807237,50.8698418 C61.0785502,52.7744518 59.7697979,54.5647349 58.290996,56.1979756 L58.2733612,56.2243588 L57.923185,56.5987478 L57.5667106,56.9718805 L57.5440373,56.9882129 C56.0047733,58.5686874 54.2967193,59.9820688 52.4538852,61.1931797 L52.4324715,61.2145374 L51.9991599,61.4921884 L51.563329,61.7660703 L51.5343576,61.7786337 C49.6524751,62.9244149 47.6458895,63.8666691 45.5624667,64.5852951 L45.5360145,64.5966021 L45.0485389,64.7599262 L44.5547652,64.9169686 L44.5270534,64.9182249 C42.4184381,65.5602142 40.2392836,65.9722934 38.0387155,66.1469245 L38.0110037,66.1532062 L37.4945567,66.1883837 L36.9818886,66.2160231 L36.9516575,66.2122541 C34.7435317,66.3089922 32.527848,66.1733076 30.3537321,65.8039439 L30.323501,65.8039439 L29.817131,65.7122312 L29.3132803,65.6129804 L29.2843089,65.604186 C27.1240488,65.1544167 25.0154335,64.4722246 23.005069,63.5714295 L22.9760976,63.5626351 L22.5075164,63.3452884 L22.046493,63.1229164 L22.0213005,63.1078404 C20.0436863,62.1316649 18.1693616,60.9481935 16.446192,59.571246 L16.4197399,59.5574262 L16.0191785,59.2332908 L15.6261749,58.9028736 L15.6072805,58.8790031 C13.9294576,57.4492893 12.4141265,55.828612 11.0827009,54.0735063 L11.058768,54.0559176 L10.7539383,53.6375567 L10.4541471,53.2229648 L10.4415508,53.1953253 C9.17688546,51.3912225 8.0999045,49.4564603 7.25595451,47.4262165 L7.23831974,47.3998333 L7.04307758,46.9236808 L6.86169131,46.4450157 L6.85539318,46.4148635 C6.07568415,44.3607492 5.5290061,42.2161785 5.21661864,40.0376866 L5.20906088,40.0100471 L5.13852178,39.5024861 L5.07931931,38.9886435 L5.08183857,38.9597477 C4.84502872,36.7737177 4.84502872,34.551254 5.08183857,32.3639677 L5.07931931,32.3338156 L5.13852178,31.8237419 L5.20906088,31.3174373 L5.21661864,31.2872852 C5.5290061,29.1087933 6.07568415,26.9642225 6.85539318,24.9088518 L6.86169131,24.8799561 L7.04307758,24.4012909 L7.23831974,23.9263947 L7.25595451,23.8987553 C8.0999045,21.867255 9.17688546,19.9324929 10.4415508,18.1296464 L10.4541471,18.1020069 L10.7539383,17.6849024 L11.058768,17.2715668 L11.0827009,17.2514654 C12.4141265,15.4988724 13.9294576,13.8781951 15.6072805,12.4447122 L15.6249153,12.4246108 L16.0191785,12.0904246 L16.4197399,11.7662892 L16.4449324,11.7549821 C18.1681019,10.3755218 20.0424267,9.1933068 22.0187812,8.21713137 L22.046493,8.19954262 L22.5075164,7.97842695 L22.974838,7.76108029 L23.0025498,7.75605494 C25.0154335,6.85525985 27.1227892,6.17055507 29.2843089,5.72204203 L29.3132803,5.71073498 L29.817131,5.61399688 L30.323501,5.51977145 L30.3537321,5.51977145 C32.527848,5.15166411 34.7435317,5.01346681 36.9516575,5.11020492 L36.9818886,5.10894858 L37.4945567,5.13658804 L38.0110037,5.16925286 L38.0387155,5.17679089 C40.2392836,5.35142202 42.4184381,5.7660139 44.5270534,6.40549047 L44.5547652,6.40800315 L45.0485389,6.56504553 L45.5360145,6.7283696 L45.5624667,6.74093299 C47.6458895,7.46081526 49.6524751,8.39930053 51.5343576,9.54885075 L51.563329,9.5601578 L51.9991599,9.83027069 L52.4324715,10.1104343 L52.4526256,10.1330484 C54.2967193,11.3416466 56.0047733,12.755028 57.5440373,14.3355025 L57.5667106,14.3518349 L57.923185,14.7249676 L58.2733612,15.0993566 L58.290996,15.1257397 C59.7697979,16.7589805 61.0785502,18.5492636 62.1782045,20.4538736 L62.1983585,20.4790004 L62.4490243,20.9250008 L62.6921322,21.3772828 L62.7009496,21.4049223 C63.732584,23.3509914 64.5526011,25.4076184 65.1332891,27.5270624 L65.1458853,27.5559582 L65.2794058,28.0509558 L65.4028492,28.5509787 L65.4028492,28.5798745 C65.9155173,30.7194199 66.1863371,32.9155006 66.2253856,35.1166065 L66.2279048,35.1492714 L66.2354626,35.6618577 L66.2279048,36.1757004 L66.2253856,36.2045962 C66.1863371,38.4069585 65.916777,40.6042955 65.4028492,42.7438409 L65.4028492,42.773993 L65.2794058,43.2715033 L65.1458853,43.7690135 Z M67.6915912,36.5098865 L67.7041875,35.6618577 L67.6915912,34.8125725 C68.7144082,33.9180591 69.6994364,32.946909 70.6441565,31.8890716 C70.9905539,31.4983501 70.9200148,30.9141525 70.4816647,30.6201691 C69.3102117,29.8299319 68.1160855,29.1251257 66.9005455,28.5132886 L66.7002649,27.6891301 L66.4785706,26.8699971 C67.2456833,25.7518553 67.9586321,24.5608459 68.6048207,23.3032506 C68.8479287,22.8384051 68.627494,22.2881286 68.1337202,22.1122411 C66.7972561,21.641114 65.4607921,21.2591869 64.134405,20.9689726 L63.732584,20.2201946 L63.3118686,19.4839799 C63.7779306,18.2062831 64.1684149,16.8745637 64.4795427,15.5001288 C64.5992073,14.9862861 64.2477714,14.515159 63.7262859,14.4661618 C62.3180231,14.3367588 60.9248758,14.300325 59.566998,14.3480659 L58.9926082,13.722409 L58.4018432,13.1118283 C58.534104,11.7625201 58.5832294,10.3755218 58.5429214,8.96465309 C58.5315847,8.44075972 58.0768595,8.06511434 57.5566336,8.14928906 C56.1584478,8.37543008 54.8043489,8.67946413 53.4981158,9.06013486 L52.7864267,8.59654576 L52.0634009,8.15180174 C51.8580817,6.81003164 51.5608098,5.45569816 51.1690658,4.10010833 C51.0279876,3.59003468 50.4888673,3.34504857 50.0102091,3.55360085 C48.7115338,4.11644074 47.4733206,4.75214829 46.3069062,5.4443911 C46.0398653,5.34890934 45.7703051,5.25845293 45.4994853,5.17050919 C45.2311848,5.0838218 44.9603651,5.00090342 44.6882857,4.92049773 C44.1516846,3.67546574 43.5243904,2.43671544 42.8051435,1.21806657 C42.5393622,0.769553538 41.9599339,0.656483024 41.5467763,0.983131174 C40.4307469,1.84874877 39.3928144,2.77467065 38.435498,3.73953903 C38.1533415,3.71064323 37.8699255,3.69305448 37.5865095,3.67546574 C37.3030934,3.65410797 37.0196774,3.6453136 36.7350017,3.63651923 C35.9061672,2.56109301 34.9916782,1.51079357 33.9953133,0.512004034 C33.6262426,0.13887134 33.034218,0.180330528 32.7167921,0.593666072 C31.8476495,1.70678246 31.0704598,2.85884536 30.3814439,4.02724067 L29.5425324,4.17548867 C29.2654145,4.22699858 28.9845177,4.28102115 28.709919,4.34509445 C27.6404958,3.50962898 26.4917162,2.71813539 25.2761762,1.99950946 C24.8252298,1.72939656 24.2621766,1.91282206 24.0555978,2.39525626 C23.4950639,3.69054181 23.0315212,4.99964708 22.6586717,6.30372701 L21.8840011,6.65675828 L21.118148,7.0273783 C19.8723771,6.48463983 18.566144,6.00974367 17.2044874,5.61525321 C16.7031559,5.47077422 16.203084,5.78108997 16.1249872,6.30247067 C15.909591,7.69826334 15.7836283,9.07646727 15.7458395,10.4320571 L15.0832758,10.9660012 L14.4358276,11.513765 C13.0918057,11.2964184 11.7112547,11.1645028 10.2954341,11.1167619 C9.76891008,11.0916351 9.36708912,11.5288411 9.41873382,12.0464528 C9.55351389,13.4510398 9.77772747,14.8217057 10.0775187,16.1433744 C9.90369015,16.3657464 9.73364053,16.5944001 9.56862941,16.8230538 L9.07737494,17.5165529 C7.72327608,17.6371615 6.34776355,17.8469701 4.96343364,18.1497478 C4.4545444,18.265331 4.16357059,18.7779173 4.34621649,19.2704022 C4.8299132,20.5996089 5.38037013,21.8685114 6.00388542,23.0771095 L5.68142095,23.8598088 L5.37785088,24.653815 C4.09681037,25.1086098 2.82080837,25.6563736 1.55866227,26.2945938 C1.08756182,26.5295292 0.942704735,27.0986508 1.23997667,27.5333441 C2.04109935,28.6979704 2.89764561,29.7909854 3.79827881,30.804851 L3.68365276,31.6440854 L3.58918075,32.4870889 C2.45803584,33.2446614 1.36467973,34.0939466 0.300295041,35.0248938 C-0.100266297,35.3678744 -0.100266297,35.9570974 0.300295041,36.3013343 C1.36467973,37.2310252 2.46055509,38.079054 3.58918075,38.8378828 L3.68365276,39.6808863 L3.79827881,40.5213771 C2.89764561,41.5352427 2.04109935,42.6282577 1.23997667,43.7916276 C0.942704735,44.2225519 1.08756182,44.7954425 1.55866227,45.0316343 C2.82080837,45.6673418 4.09681037,46.216362 5.37785088,46.6736694 L5.68142095,47.4626503 L6.00514505,48.2478622 C5.38037013,49.4564603 4.8299132,50.7253628 4.34621649,52.0533131 C4.16357059,52.545798 4.4545444,53.0596407 4.96343364,53.1752239 C6.34776355,53.4780016 7.7245357,53.6865539 9.07737494,53.8096751 L9.56862941,54.5019179 C9.73364053,54.731828 9.90369015,54.957969 10.0775187,55.180341 C9.77772747,56.503266 9.55351389,57.8739319 9.41873382,59.2772626 C9.36708912,59.7961306 9.76891008,60.2320803 10.2954341,60.2082099 C11.7112547,60.160469 13.0918057,60.027297 14.4358276,59.8074377 L15.0832758,60.3602269 L15.7458395,60.8929146 C15.7848879,62.2485045 15.909591,63.6279647 16.1249872,65.0237574 C16.203084,65.5451381 16.7031559,65.8541975 17.2044874,65.7097185 C18.566144,65.3139717 19.8736367,64.8390756 21.1194076,64.2963371 L21.8840011,64.6682134 L22.6586717,65.0212447 C23.0315212,66.3253246 23.4950639,67.6344299 24.0568575,68.9272028 C24.2621766,69.4121497 24.8252298,69.5918061 25.2761762,69.3242059 C26.4929758,68.6080927 27.6404958,67.8178554 28.709919,66.9798773 C28.9845177,67.0426942 29.2654145,67.0979731 29.5425324,67.1482267 L30.3814439,67.2964747 C31.0704598,68.46487 31.8501688,69.6181893 32.7167921,70.732562 C33.034218,71.1446412 33.6262426,71.1861004 33.9953133,70.810455 C34.9916782,69.8129218 35.9061672,68.7638787 36.7350017,67.6909652 C37.0196774,67.6796581 37.3030934,67.6696074 37.5865095,67.649506 C37.8699255,67.6331736 38.1533415,67.6130722 38.435498,67.5841764 C39.3928144,68.5515574 40.4307469,69.4749666 41.5467763,70.3430969 C41.9599339,70.6672324 42.5393622,70.5529055 42.8051435,70.1043925 C43.5243904,68.8895126 44.1516846,67.6482496 44.6882857,66.400705 C44.9603651,66.3253246 45.2311848,66.2424063 45.4994853,66.1532062 C45.7703051,66.0677751 46.0398653,65.9760624 46.3069062,65.8793243 C47.4733206,66.5728234 48.7115338,67.2097873 50.0102091,67.7713709 C50.4888673,67.9799232 51.0279876,67.7324244 51.1690658,67.2273761 C51.5608098,65.8705299 51.8580817,64.5161964 52.0634009,63.1719136 L52.7864267,62.7271696 L53.4981158,62.2635805 C54.8043489,62.6455076 56.1584478,62.9482853 57.5566336,63.1756827 C58.0768595,63.2611137 58.5315847,62.884212 58.5429214,62.3603186 C58.5844891,60.9481935 58.534104,59.5611952 58.4018432,58.2143998 L58.9926082,57.6013063 L59.566998,56.9769058 C60.9248758,57.0233904 62.3180231,56.9869566 63.7262859,56.85881 C64.2477714,56.8123254 64.5992073,56.3386856 64.4795427,55.8248429 C64.1709342,54.4491517 63.7804498,53.116176 63.3118686,51.8409918 L63.732584,51.1047772 L64.134405,50.3547428 C65.4607921,50.0657848 66.7985158,49.6851141 68.1337202,49.2077052 C68.627494,49.0355868 68.8479287,48.4878229 68.6048207,48.0217212 C67.9586321,46.7641258 67.2469429,45.5731164 66.4785706,44.4549746 L66.7002649,43.6358416 L66.9005455,42.8116832 C68.1160855,42.1973334 69.3102117,41.4950399 70.4816647,40.7022899 C70.9200148,40.4108193 70.9905539,39.8253653 70.6441565,39.4371565 C69.6994364,38.3780627 68.7144082,37.4018873 67.6915912,36.5098865 L67.6915912,36.5098865 Z" id="Fill-3"></path>
                                <path d="M35.5674536,9.164411 C45.5802274,9.164411 54.3081819,14.7224549 58.8365404,22.8987094 L60.6818937,22.8987094 C56.0162359,13.7839697 46.5362842,7.52865757 35.5674536,7.52865757 C24.5998826,7.52865757 15.1186713,13.7839697 10.4530134,22.8987094 L12.2996264,22.8987094 C16.8279849,14.7224549 25.5559394,9.164411 35.5674536,9.164411" id="Fill-6"></path>
                                <path d="M35.5674536,62.1576711 C25.7007965,62.1576711 17.0899873,56.7529006 12.5087244,48.768866 L10.6180245,48.768866 C15.3441445,57.6989239 24.7384415,63.7971936 35.5674536,63.7971936 C46.3989849,63.7971936 55.7920223,57.6989239 60.5168826,48.768866 L58.6261827,48.768866 C54.0449199,56.7529006 45.4341107,62.1576711 35.5674536,62.1576711" id="Fill-8"></path>
                                <path d="M61.0245122,35.6604757 C61.0245122,36.4645327 60.3732852,37.110291 59.5721625,37.110291 C58.7685206,37.110291 58.1172935,36.4645327 58.1172935,35.6604757 C58.1172935,34.8601878 58.7685206,34.2119168 59.5721625,34.2119168 C60.3732852,34.2119168 61.0245122,34.8601878 61.0245122,35.6604757" id="Fill-10"></path>
                                <path d="M13.0177397,35.6604757 C13.0177397,36.4645327 12.3665126,37.110291 11.5641303,37.110291 C10.761748,37.110291 10.1105209,36.4645327 10.1105209,35.6604757 C10.1105209,34.8601878 10.761748,34.2119168 11.5641303,34.2119168 C12.3665126,34.2119168 13.0177397,34.8601878 13.0177397,35.6604757" id="Fill-12"></path>
                                <text id="卖出" font-family="MicrosoftYaHeiUI-Bold, Microsoft YaHei UI" font-size="17.7480008" font-weight="bold" line-spacing="27.1440012" letter-spacing="2.60304031">
                                    <tspan x="17.9496826" y="39.92881">卖出</tspan>
                                </text>
                            </g>
                        </g>
                    </g>
                </g>
            </g>
        </g>
    </g>
</svg>