<?xml version="1.0" encoding="UTF-8"?>
<svg width="88px" height="88px" viewBox="0 0 88 88" version="1.1" xmlns="http://www.w3.org/2000/svg" xmlns:xlink="http://www.w3.org/1999/xlink">
    <!-- Generator: Sketch 59 (86127) - https://sketch.com -->
    <title>Trade-转出_export</title>
    <desc>Created with Sketch.</desc>
    <g id="--" stroke="none" stroke-width="1" fill="none" fill-rule="evenodd" opacity="0.729399182">
        <g id="弹窗" transform="translate(-200.000000, -536.000000)" fill="#18683B">
            <g id="Trade-转出_export_export" transform="translate(200.000000, 536.000000)">
                <g id="Trade-转出_export">
                    <g id="Trade-转出">
                        <g id="Group-22-Copy-5">
                            <g id="Group-22-Copy-3" transform="translate(44.000000, 43.961406) rotate(-15.000000) translate(-44.000000, -43.961406) translate(8.500000, 7.961406)">
                                <path d="M35.1678193,54.9827189 C29.6105154,54.9827189 24.6223931,52.5831113 21.1238574,48.768866 L13.553868,48.768866 C17.9790362,56.1636776 25.9986416,61.1350112 35.1678193,61.1350112 C44.3394879,61.1350112 52.3578478,56.1636776 56.7817706,48.768866 L49.2130266,48.768866 C45.7144909,52.5831113 40.7251231,54.9827189 35.1678193,54.9827189 M35.1678193,16.3389864 C40.8920166,16.3389864 46.0134046,18.8868419 49.5219041,22.8983325 L56.9897647,22.8983325 C52.6119245,15.3125574 44.4814719,10.1892068 35.1678193,10.1892068 C25.8554121,10.1892068 17.7249595,15.3125574 13.3458739,22.8983325 L20.8137344,22.8983325 C24.3222339,18.8868419 29.4448674,16.3389864 35.1678193,16.3389864" id="Fill-1"></path>
                                <path d="M64.4139091,43.7690135 L64.4014544,43.796653 C63.827291,45.9173533 63.0164876,47.9727239 61.9964446,49.9175368 L61.9877263,49.9464326 L61.7473498,50.3987146 L61.4995005,50.8472277 L61.4820639,50.8698418 C60.3922744,52.7744518 59.0982272,54.5647349 57.636041,56.1979756 L57.6186044,56.2243588 L57.2723627,56.5987478 L56.9198936,56.9718805 L56.8974751,56.9882129 C55.3755062,58.5686874 53.6866438,59.9820688 51.8645157,61.1931797 L51.8433426,61.2145374 L51.4148997,61.4921884 L50.9839658,61.7660703 L50.9553199,61.7786337 C49.0945821,62.9244149 47.1105424,63.8666691 45.0505289,64.5852951 L45.0243739,64.5966021 L44.5423756,64.7599262 L44.0541499,64.9169686 L44.0267494,64.9182249 C41.9418264,65.5602142 39.7871568,65.9722934 37.6113142,66.1469245 L37.5839138,66.1532062 L37.0732696,66.1883837 L36.5663617,66.2160231 L36.5364704,66.2122541 C34.3531549,66.3089922 32.1623666,66.1733076 30.0126789,65.8039439 L29.9827875,65.8039439 L29.4821071,65.7122312 L28.9839176,65.6129804 L28.9552717,65.604186 C26.8192842,65.1544167 24.7343612,64.4722246 22.7465851,63.5714295 L22.7179392,63.5626351 L22.254623,63.3452884 L21.7987796,63.1229164 L21.7738701,63.1078404 C19.8184763,62.1316649 17.9652114,60.9481935 16.2614033,59.571246 L16.2352484,59.5574262 L15.8391877,59.2332908 L15.4505999,58.9028736 L15.4319178,58.8790031 C13.7729468,57.4492893 12.2746419,55.828612 10.9581762,54.0735063 L10.9345122,54.0559176 L10.6331075,53.6375567 L10.3366848,53.2229648 L10.32423,53.1953253 C9.07377439,51.3912225 8.00889434,49.4564603 7.17442693,47.4262165 L7.1569903,47.3998333 L6.96394187,46.9236808 L6.78459365,46.4450157 L6.77836629,46.4148635 C6.00741804,44.3607492 5.46688244,42.2161785 5.15800495,40.0376866 L5.15053211,40.0100471 L5.08078558,39.5024861 L5.02224831,38.9886435 L5.02473926,38.9597477 C4.7905902,36.7737177 4.7905902,34.551254 5.02473926,32.3639677 L5.02224831,32.3338156 L5.08078558,31.8237419 L5.15053211,31.3174373 L5.15800495,31.2872852 C5.46688244,29.1087933 6.00741804,26.9642225 6.77836629,24.9088518 L6.78459365,24.8799561 L6.96394187,24.4012909 L7.1569903,23.9263947 L7.17442693,23.8987553 C8.00889434,21.867255 9.07377439,19.9324929 10.32423,18.1296464 L10.3366848,18.1020069 L10.6331075,17.6849024 L10.9345122,17.2715668 L10.9581762,17.2514654 C12.2746419,15.4988724 13.7729468,13.8781951 15.4319178,12.4447122 L15.4493545,12.4246108 L15.8391877,12.0904246 L16.2352484,11.7662892 L16.2601579,11.7549821 C17.9639659,10.3755218 19.8172309,9.1933068 21.7713792,8.21713137 L21.7987796,8.19954262 L22.254623,7.97842695 L22.7166937,7.76108029 L22.7440942,7.75605494 C24.7343612,6.85525985 26.8180388,6.17055507 28.9552717,5.72204203 L28.9839176,5.71073498 L29.4821071,5.61399688 L29.9827875,5.51977145 L30.0126789,5.51977145 C32.1623666,5.15166411 34.3531549,5.01346681 36.5364704,5.11020492 L36.5663617,5.10894858 L37.0732696,5.13658804 L37.5839138,5.16925286 L37.6113142,5.17679089 C39.7871568,5.35142202 41.9418264,5.7660139 44.0267494,6.40549047 L44.0541499,6.40800315 L44.5423756,6.56504553 L45.0243739,6.7283696 L45.0505289,6.74093299 C47.1105424,7.46081526 49.0945821,8.39930053 50.9553199,9.54885075 L50.9839658,9.5601578 L51.4148997,9.83027069 L51.8433426,10.1104343 L51.8632702,10.1330484 C53.6866438,11.3416466 55.3755062,12.755028 56.8974751,14.3355025 L56.9198936,14.3518349 L57.2723627,14.7249676 L57.6186044,15.0993566 L57.636041,15.1257397 C59.0982272,16.7589805 60.3922744,18.5492636 61.479573,20.4538736 L61.4995005,20.4790004 L61.7473498,20.9250008 L61.9877263,21.3772828 L61.9964446,21.4049223 C63.0164876,23.3509914 63.827291,25.4076184 64.4014544,27.5270624 L64.4139091,27.5559582 L64.5459293,28.0509558 L64.6679857,28.5509787 L64.6679857,28.5798745 C65.1748936,30.7194199 65.4426704,32.9155006 65.4812801,35.1166065 L65.483771,35.1492714 L65.4912439,35.6618577 L65.483771,36.1757004 L65.4812801,36.2045962 C65.4426704,38.4069585 65.176139,40.6042955 64.6679857,42.7438409 L64.6679857,42.773993 L64.5459293,43.2715033 L64.4139091,43.7690135 Z M66.9310115,36.5098865 L66.9434663,35.6618577 L66.9310115,34.8125725 C67.9423362,33.9180591 68.9162967,32.946909 69.850402,31.8890716 C70.1929073,31.4983501 70.1231607,30.9141525 69.6897359,30.6201691 C68.5314453,29.8299319 67.3507362,29.1251257 66.148854,28.5132886 L65.9508237,27.6891301 L65.7316203,26.8699971 C66.4901138,25.7518553 67.195052,24.5608459 67.83398,23.3032506 C68.0743564,22.8384051 67.8563985,22.2881286 67.3681728,22.1122411 C66.0467252,21.641114 64.7252775,21.2591869 63.4137937,20.9689726 L63.0164876,20.2201946 L62.6004993,19.4839799 C63.0613246,18.2062831 63.4474215,16.8745637 63.7550535,15.5001288 C63.8733735,14.9862861 63.5258863,14.515159 63.0102602,14.4661618 C61.6178206,14.3367588 60.2403266,14.300325 58.8977059,14.3480659 L58.3297699,13.722409 L57.7456427,13.1118283 C57.8764174,11.7625201 57.9249909,10.3755218 57.8851358,8.96465309 C57.8739265,8.44075972 57.4243105,8.06511434 56.9099298,8.14928906 C55.527454,8.37543008 54.1885697,8.67946413 52.8970134,9.06013486 L52.1933208,8.59654576 L51.4784188,8.15180174 C51.2754066,6.81003164 50.9814748,5.45569816 50.5941325,4.10010833 C50.4546394,3.59003468 49.9215767,3.34504857 49.4482966,3.55360085 C48.1642132,4.11644074 46.9399125,4.75214829 45.7866038,5.4443911 C45.5225634,5.34890934 45.256032,5.25845293 44.9882552,5.17050919 C44.7229693,5.0838218 44.4551924,5.00090342 44.1861701,4.92049773 C43.6555983,3.67546574 43.0353523,2.43671544 42.3241868,1.21806657 C42.0613919,0.769553538 41.488474,0.656483024 41.0799586,0.983131174 C39.9764688,1.84874877 38.9501985,2.77467065 38.0036384,3.73953903 C37.7246523,3.71064323 37.4444207,3.69305448 37.1641891,3.67546574 C36.8839575,3.65410797 36.6037259,3.6453136 36.3222489,3.63651923 C35.5027272,2.56109301 34.5985132,1.51079357 33.6133435,0.512004034 C33.2484197,0.13887134 32.663047,0.180330528 32.3491877,0.593666072 C31.4898108,1.70678246 30.7213535,2.85884536 30.0400793,4.02724067 L29.2105938,4.17548867 C28.9365896,4.22699858 28.658849,4.28102115 28.3873357,4.34509445 C27.3299285,3.50962898 26.1940564,2.71813539 24.9921743,1.99950946 C24.5462947,1.72939656 23.9895679,1.91282206 23.7853102,2.39525626 C23.2310744,3.69054181 22.7727401,4.99964708 22.4040798,6.30372701 L21.6381135,6.65675828 L20.8808654,7.0273783 C19.6490919,6.48463983 18.3575357,6.00974367 17.0111785,5.61525321 C16.51548,5.47077422 16.0210269,5.78108997 15.9438075,6.30247067 C15.7308315,7.69826334 15.6062842,9.07646727 15.5689199,10.4320571 L14.9138008,10.9660012 L14.2736273,11.513765 C12.9447068,11.2964184 11.5796676,11.1645028 10.1797551,11.1167619 C9.65914705,11.0916351 9.26184092,11.5288411 9.31290535,12.0464528 C9.44617104,13.4510398 9.66786536,14.8217057 9.96428811,16.1433744 C9.79241274,16.3657464 9.62427378,16.5944001 9.46111672,16.8230538 L8.97538196,17.5165529 C7.63649769,17.6371615 6.27644037,17.8469701 4.90766473,18.1497478 C4.40449334,18.265331 4.1167889,18.7779173 4.29738259,19.2704022 C4.77564451,20.5996089 5.31991654,21.8685114 5.93642604,23.0771095 L5.61758476,23.8598088 L5.31742559,24.653815 C4.05077879,25.1086098 2.78911389,25.6563736 1.54114921,26.2945938 C1.07534203,26.5295292 0.932112547,27.0986508 1.22604435,27.5333441 C2.01816565,28.6979704 2.86508779,29.7909854 3.75560152,30.804851 L3.64226341,31.6440854 L3.54885288,32.4870889 C2.43041746,33.2446614 1.34934625,34.0939466 0.29692094,35.0248938 C-0.0991397097,35.3678744 -0.0991397097,35.9570974 0.29692094,36.3013343 C1.34934625,37.2310252 2.4329084,38.079054 3.54885288,38.8378828 L3.64226341,39.6808863 L3.75560152,40.5213771 C2.86508779,41.5352427 2.01816565,42.6282577 1.22604435,43.7916276 C0.932112547,44.2225519 1.07534203,44.7954425 1.54114921,45.0316343 C2.78911389,45.6673418 4.05077879,46.216362 5.31742559,46.6736694 L5.61758476,47.4626503 L5.93767151,48.2478622 C5.31991654,49.4564603 4.77564451,50.7253628 4.29738259,52.0533131 C4.1167889,52.545798 4.40449334,53.0596407 4.90766473,53.1752239 C6.27644037,53.4780016 7.63774317,53.6865539 8.97538196,53.8096751 L9.46111672,54.5019179 C9.62427378,54.731828 9.79241274,54.957969 9.96428811,55.180341 C9.66786536,56.503266 9.44617104,57.8739319 9.31290535,59.2772626 C9.26184092,59.7961306 9.65914705,60.2320803 10.1797551,60.2082099 C11.5796676,60.160469 12.9447068,60.027297 14.2736273,59.8074377 L14.9138008,60.3602269 L15.5689199,60.8929146 C15.6075296,62.2485045 15.7308315,63.6279647 15.9438075,65.0237574 C16.0210269,65.5451381 16.51548,65.8541975 17.0111785,65.7097185 C18.3575357,65.3139717 19.6503374,64.8390756 20.8821109,64.2963371 L21.6381135,64.6682134 L22.4040798,65.0212447 C22.7727401,66.3253246 23.2310744,67.6344299 23.7865557,68.9272028 C23.9895679,69.4121497 24.5462947,69.5918061 24.9921743,69.3242059 C26.1953019,68.6080927 27.3299285,67.8178554 28.3873357,66.9798773 C28.658849,67.0426942 28.9365896,67.0979731 29.2105938,67.1482267 L30.0400793,67.2964747 C30.7213535,68.46487 31.4923017,69.6181893 32.3491877,70.732562 C32.663047,71.1446412 33.2484197,71.1861004 33.6133435,70.810455 C34.5985132,69.8129218 35.5027272,68.7638787 36.3222489,67.6909652 C36.6037259,67.6796581 36.8839575,67.6696074 37.1641891,67.649506 C37.4444207,67.6331736 37.7246523,67.6130722 38.0036384,67.5841764 C38.9501985,68.5515574 39.9764688,69.4749666 41.0799586,70.3430969 C41.488474,70.6672324 42.0613919,70.5529055 42.3241868,70.1043925 C43.0353523,68.8895126 43.6555983,67.6482496 44.1861701,66.400705 C44.4551924,66.3253246 44.7229693,66.2424063 44.9882552,66.1532062 C45.256032,66.0677751 45.5225634,65.9760624 45.7866038,65.8793243 C46.9399125,66.5728234 48.1642132,67.2097873 49.4482966,67.7713709 C49.9215767,67.9799232 50.4546394,67.7324244 50.5941325,67.2273761 C50.9814748,65.8705299 51.2754066,64.5161964 51.4784188,63.1719136 L52.1933208,62.7271696 L52.8970134,62.2635805 C54.1885697,62.6455076 55.527454,62.9482853 56.9099298,63.1756827 C57.4243105,63.2611137 57.8739265,62.884212 57.8851358,62.3603186 C57.9262364,60.9481935 57.8764174,59.5611952 57.7456427,58.2143998 L58.3297699,57.6013063 L58.8977059,56.9769058 C60.2403266,57.0233904 61.6178206,56.9869566 63.0102602,56.85881 C63.5258863,56.8123254 63.8733735,56.3386856 63.7550535,55.8248429 C63.4499124,54.4491517 63.0638156,53.116176 62.6004993,51.8409918 L63.0164876,51.1047772 L63.4137937,50.3547428 C64.7252775,50.0657848 66.0479706,49.6851141 67.3681728,49.2077052 C67.8563985,49.0355868 68.0743564,48.4878229 67.83398,48.0217212 C67.195052,46.7641258 66.4913593,45.5731164 65.7316203,44.4549746 L65.9508237,43.6358416 L66.148854,42.8116832 C67.3507362,42.1973334 68.5314453,41.4950399 69.6897359,40.7022899 C70.1231607,40.4108193 70.1929073,39.8253653 69.850402,39.4371565 C68.9162967,38.3780627 67.9423362,37.4018873 66.9310115,36.5098865 L66.9310115,36.5098865 Z" id="Fill-3"></path>
                                <path d="M35.1678193,9.164411 C45.06809,9.164411 53.6979776,14.7224549 58.1754557,22.8987094 L60.0000747,22.8987094 C55.38684,13.7839697 46.0134046,7.52865757 35.1678193,7.52865757 C24.3234794,7.52865757 14.9487986,13.7839697 10.3355638,22.8987094 L12.1614283,22.8987094 C16.6389064,14.7224549 25.268794,9.164411 35.1678193,9.164411" id="Fill-6"></path>
                                <path d="M35.1678193,62.1576711 C25.4120235,62.1576711 16.897965,56.7529006 12.368177,48.768866 L10.4987209,48.768866 C15.1717384,57.6989239 24.4604815,63.7971936 35.1678193,63.7971936 C45.877648,63.7971936 55.1651457,57.6989239 59.8369177,48.768866 L57.9674616,48.768866 C53.4376736,56.7529006 44.9236151,62.1576711 35.1678193,62.1576711" id="Fill-8"></path>
                                <path d="M60.3388436,35.6604757 C60.3388436,36.4645327 59.6949336,37.110291 58.9028123,37.110291 C58.1082001,37.110291 57.4642902,36.4645327 57.4642902,35.6604757 C57.4642902,34.8601878 58.1082001,34.2119168 58.9028123,34.2119168 C59.6949336,34.2119168 60.3388436,34.8601878 60.3388436,35.6604757" id="Fill-10"></path>
                                <path d="M12.8714729,35.6604757 C12.8714729,36.4645327 12.227563,37.110291 11.4341962,37.110291 C10.6408294,37.110291 9.99691953,36.4645327 9.99691953,35.6604757 C9.99691953,34.8601878 10.6408294,34.2119168 11.4341962,34.2119168 C12.227563,34.2119168 12.8714729,34.8601878 12.8714729,35.6604757" id="Fill-12"></path>
                                <text id="转出" font-family="MicrosoftYaHeiUI-Bold, Microsoft YaHei UI" font-size="17.7480008" font-weight="bold" line-spacing="27.1440012" letter-spacing="2.60304031">
                                    <tspan x="17.7480008" y="39.924001">转出</tspan>
                                </text>
                            </g>
                        </g>
                    </g>
                </g>
            </g>
        </g>
    </g>
</svg>