<?xml version="1.0" encoding="UTF-8"?>
<svg width="88px" height="88px" viewBox="0 0 88 88" version="1.1" xmlns="http://www.w3.org/2000/svg" xmlns:xlink="http://www.w3.org/1999/xlink">
    <!-- Generator: Sketch 59 (86127) - https://sketch.com -->
    <title>Trade-撤出_export</title>
    <desc>Created with Sketch.</desc>
    <g id="--" stroke="none" stroke-width="1" fill="none" fill-rule="evenodd" opacity="0.729399182">
        <g id="弹窗" transform="translate(-315.000000, -426.000000)" fill="#007AD0">
            <g id="Trade-撤出_export_export" transform="translate(315.000000, 426.000000)">
                <g id="Trade-撤出_export">
                    <g id="Trade-撤出">
                        <g id="Group-22-Copy-6" transform="translate(0.660463, 0.000000)">
                            <g id="Group-22-Copy-3" transform="translate(43.407940, 43.987579) rotate(-15.000000) translate(-43.407940, -43.987579) translate(8.407940, 7.987579)">
                                <path d="M34.7726752,54.9827189 C29.277813,54.9827189 24.345737,52.5831113 20.8865107,48.768866 L13.4015773,48.768866 C17.7770245,56.1636776 25.706522,61.1350112 34.7726752,61.1350112 C43.8412914,61.1350112 51.7695574,56.1636776 56.1437731,48.768866 L48.6600713,48.768866 C45.2008449,52.5831113 40.2675375,54.9827189 34.7726752,54.9827189 M34.7726752,16.3389864 C40.4325557,16.3389864 45.4964001,18.8868419 48.9654782,22.8983325 L56.3494302,22.8983325 C52.0207793,15.3125574 43.9816801,10.1892068 34.7726752,10.1892068 C25.5649019,10.1892068 17.5258027,15.3125574 13.1959202,22.8983325 L20.5798722,22.8983325 C24.0489504,18.8868419 29.1140262,16.3389864 34.7726752,16.3389864" id="Fill-1"></path>
                                <path d="M63.6901573,43.7690135 L63.6778425,43.796653 C63.1101304,45.9173533 62.3084371,47.9727239 61.2998553,49.9175368 L61.2912349,49.9464326 L61.0535594,50.3987146 L60.8084949,50.8472277 L60.7912542,50.8698418 C59.7137095,52.7744518 58.4342022,54.5647349 56.988445,56.1979756 L56.9712043,56.2243588 L56.628853,56.5987478 L56.2803442,56.9718805 L56.2581776,56.9882129 C54.7533095,58.5686874 53.0834231,59.9820688 51.2817683,61.1931797 L51.2608332,61.2145374 L50.8372042,61.4921884 L50.4111122,61.7660703 L50.3827882,61.7786337 C48.5429576,62.9244149 46.5812105,63.8666691 44.5443431,64.5852951 L44.5184821,64.5966021 L44.0418994,64.7599262 L43.5591594,64.9169686 L43.5320669,64.9182249 C41.4705699,65.5602142 39.3401101,65.9722934 37.1887152,66.1469245 L37.1616226,66.1532062 L36.656716,66.1883837 L36.1555037,66.2160231 L36.1259482,66.2122541 C33.9671644,66.3089922 31.8009917,66.1733076 29.6754578,65.8039439 L29.6459023,65.8039439 L29.1508475,65.7122312 L28.6582556,65.6129804 L28.6299316,65.604186 C26.517944,65.1544167 24.456447,64.4722246 22.4910055,63.5714295 L22.4626815,63.5626351 L22.004571,63.3452884 L21.5538495,63.1229164 L21.5292199,63.1078404 C19.5957968,62.1316649 17.7633551,60.9481935 16.0786909,59.571246 L16.0528299,59.5574262 L15.6612193,59.2332908 L15.2769977,58.9028736 L15.2585255,58.8790031 C13.6181946,57.4492893 12.1367246,55.828612 10.8350506,54.0735063 L10.8116525,54.0559176 L10.5136344,53.6375567 L10.2205422,53.2229648 L10.2082274,53.1953253 C8.97182187,51.3912225 7.91890676,49.4564603 7.0938154,47.4262165 L7.07657468,47.3998333 L6.88569533,46.9236808 L6.70836226,46.4450157 L6.70220487,46.4148635 C5.93991896,44.3607492 5.40545679,42.2161785 5.10004984,40.0376866 L5.09266096,40.0100471 L5.0236981,39.5024861 L4.96581855,38.9886435 L4.96828151,38.9597477 C4.73676334,36.7737177 4.73676334,34.551254 4.96828151,32.3639677 L4.96581855,32.3338156 L5.0236981,31.8237419 L5.09266096,31.3174373 L5.10004984,31.2872852 C5.40545679,29.1087933 5.93991896,26.9642225 6.70220487,24.9088518 L6.70836226,24.8799561 L6.88569533,24.4012909 L7.07657468,23.9263947 L7.0938154,23.8987553 C7.91890676,21.867255 8.97182187,19.9324929 10.2082274,18.1296464 L10.2205422,18.1020069 L10.5136344,17.6849024 L10.8116525,17.2715668 L10.8350506,17.2514654 C12.1367246,15.4988724 13.6181946,13.8781951 15.2585255,12.4447122 L15.2757662,12.4246108 L15.6612193,12.0904246 L16.0528299,11.7662892 L16.0774595,11.7549821 C17.7621236,10.3755218 19.5945654,9.1933068 21.5267569,8.21713137 L21.5538495,8.19954262 L22.004571,7.97842695 L22.46145,7.76108029 L22.4885425,7.75605494 C24.456447,6.85525985 26.5167125,6.17055507 28.6299316,5.72204203 L28.6582556,5.71073498 L29.1508475,5.61399688 L29.6459023,5.51977145 L29.6754578,5.51977145 C31.8009917,5.15166411 33.9671644,5.01346681 36.1259482,5.11020492 L36.1555037,5.10894858 L36.656716,5.13658804 L37.1616226,5.16925286 L37.1887152,5.17679089 C39.3401101,5.35142202 41.4705699,5.7660139 43.5320669,6.40549047 L43.5591594,6.40800315 L44.0418994,6.56504553 L44.5184821,6.7283696 L44.5443431,6.74093299 C46.5812105,7.46081526 48.5429576,8.39930053 50.3827882,9.54885075 L50.4111122,9.5601578 L50.8372042,9.83027069 L51.2608332,10.1104343 L51.2805368,10.1330484 C53.0834231,11.3416466 54.7533095,12.755028 56.2581776,14.3355025 L56.2803442,14.3518349 L56.628853,14.7249676 L56.9712043,15.0993566 L56.988445,15.1257397 C58.4342022,16.7589805 59.7137095,18.5492636 60.7887913,20.4538736 L60.8084949,20.4790004 L61.0535594,20.9250008 L61.2912349,21.3772828 L61.2998553,21.4049223 C62.3084371,23.3509914 63.1101304,25.4076184 63.6778425,27.5270624 L63.6901573,27.5559582 L63.8206942,28.0509558 L63.9413792,28.5509787 L63.9413792,28.5798745 C64.4425914,30.7194199 64.7073595,32.9155006 64.7455354,35.1166065 L64.7479983,35.1492714 L64.7553872,35.6618577 L64.7479983,36.1757004 L64.7455354,36.2045962 C64.7073595,38.4069585 64.4438229,40.6042955 63.9413792,42.7438409 L63.9413792,42.773993 L63.8206942,43.2715033 L63.6901573,43.7690135 Z M66.1789777,36.5098865 L66.1912925,35.6618577 L66.1789777,34.8125725 C67.1789392,33.9180591 68.1419563,32.946909 69.065566,31.8890716 C69.4042229,31.4983501 69.33526,30.9141525 68.9067051,30.6201691 C67.761429,29.8299319 66.5939863,29.1251257 65.4056085,28.5132886 L65.2098032,27.6891301 L64.9930628,26.8699971 C65.7430339,25.7518553 66.4400514,24.5608459 67.0718004,23.3032506 C67.309476,22.8384051 67.0939671,22.2881286 66.6112271,22.1122411 C65.3046271,21.641114 63.9980272,21.2591869 62.7012792,20.9689726 L62.3084371,20.2201946 L61.8971229,19.4839799 C62.3527704,18.2062831 62.7345291,16.8745637 63.0387046,15.5001288 C63.1556951,14.9862861 62.8121123,14.515159 62.3022797,14.4661618 C60.9254855,14.3367588 59.563469,14.300325 58.2359339,14.3480659 L57.6743792,13.722409 L57.0968152,13.1118283 C57.2261206,11.7625201 57.2741483,10.3755218 57.234741,8.96465309 C57.2236577,8.44075972 56.7790935,8.06511434 56.2704924,8.14928906 C54.90355,8.37543008 53.5797094,8.67946413 52.302665,9.06013486 L51.606879,8.59654576 L50.9000096,8.15180174 C50.6992784,6.81003164 50.4086493,5.45569816 50.0256591,4.10010833 C49.8877334,3.59003468 49.3606601,3.34504857 48.8926978,3.55360085 C47.6230423,4.11644074 46.4124978,4.75214829 45.2721476,5.4443911 C45.0110739,5.34890934 44.7475373,5.25845293 44.4827692,5.17050919 C44.220464,5.0838218 43.9556959,5.00090342 43.6896963,4.92049773 C43.1650859,3.67546574 42.5518091,2.43671544 41.8486342,1.21806657 C41.588792,0.769553538 41.0223113,0.656483024 40.618386,0.983131174 C39.527295,1.84874877 38.5125558,2.77467065 37.5766313,3.73953903 C37.3007798,3.71064323 37.0236969,3.69305448 36.746614,3.67546574 C36.4695311,3.65410797 36.1924481,3.6453136 35.9141337,3.63651923 C35.1038201,2.56109301 34.2097659,1.51079357 33.2356655,0.512004034 C32.8748419,0.13887134 32.2960465,0.180330528 31.9857136,0.593666072 C31.1359927,1.70678246 30.3761697,2.85884536 29.7025504,4.02724067 L28.8823849,4.17548867 C28.6114594,4.22699858 28.3368394,4.28102115 28.0683769,4.34509445 C27.0228506,3.50962898 25.8997412,2.71813539 24.7113633,1.99950946 C24.2704936,1.72939656 23.7200222,1.91282206 23.5180595,2.39525626 C22.9700511,3.69054181 22.5168666,4.99964708 22.1523486,6.30372701 L21.3949886,6.65675828 L20.646249,7.0273783 C19.4283156,6.48463983 18.1512712,6.00974367 16.8200417,5.61525321 C16.3299128,5.47077422 15.8410154,5.78108997 15.7646636,6.30247067 C15.5540806,7.69826334 15.4309327,9.07646727 15.3939883,10.4320571 L14.74623,10.9660012 L14.1132494,11.513765 C12.7992606,11.2964184 11.4495589,11.1645028 10.0653758,11.1167619 C9.55061731,11.0916351 9.1577753,11.5288411 9.20826596,12.0464528 C9.34003428,13.4510398 9.55923766,14.8217057 9.85232982,16.1433744 C9.68238563,16.3657464 9.51613587,16.5944001 9.35481204,16.8230538 L8.87453498,17.5165529 C7.55069435,17.6371615 6.20591857,17.8469701 4.85252243,18.1497478 C4.35500465,18.265331 4.07053285,18.7779173 4.2490974,19.2704022 C4.72198558,20.5996089 5.26014219,21.8685114 5.86972462,23.0771095 L5.55446583,23.8598088 L5.25767923,24.653815 C4.00526443,25.1086098 2.75777554,25.6563736 1.52383292,26.2945938 C1.06325953,26.5295292 0.921639373,27.0986508 1.21226857,27.5333441 C1.99548963,28.6979704 2.8328958,29.7909854 3.71340375,30.804851 L3.6013391,31.6440854 L3.50897812,32.4870889 C2.4031094,33.2446614 1.33418506,34.0939466 0.293584749,35.0248938 C-0.0980257804,35.3678744 -0.0980257804,35.9570974 0.293584749,36.3013343 C1.33418506,37.2310252 2.40557236,38.079054 3.50897812,38.8378828 L3.6013391,39.6808863 L3.71340375,40.5213771 C2.8328958,41.5352427 1.99548963,42.6282577 1.21226857,43.7916276 C0.921639373,44.2225519 1.06325953,44.7954425 1.52383292,45.0316343 C2.75777554,45.6673418 4.00526443,46.216362 5.25767923,46.6736694 L5.55446583,47.4626503 L5.8709561,48.2478622 C5.26014219,49.4564603 4.72198558,50.7253628 4.2490974,52.0533131 C4.07053285,52.545798 4.35500465,53.0596407 4.85252243,53.1752239 C6.20591857,53.4780016 7.55192583,53.6865539 8.87453498,53.8096751 L9.35481204,54.5019179 C9.51613587,54.731828 9.68238563,54.957969 9.85232982,55.180341 C9.55923766,56.503266 9.34003428,57.8739319 9.20826596,59.2772626 C9.1577753,59.7961306 9.55061731,60.2320803 10.0653758,60.2082099 C11.4495589,60.160469 12.7992606,60.027297 14.1132494,59.8074377 L14.74623,60.3602269 L15.3939883,60.8929146 C15.4321641,62.2485045 15.5540806,63.6279647 15.7646636,65.0237574 C15.8410154,65.5451381 16.3299128,65.8541975 16.8200417,65.7097185 C18.1512712,65.3139717 19.4295471,64.8390756 20.6474805,64.2963371 L21.3949886,64.6682134 L22.1523486,65.0212447 C22.5168666,66.3253246 22.9700511,67.6344299 23.519291,68.9272028 C23.7200222,69.4121497 24.2704936,69.5918061 24.7113633,69.3242059 C25.9009727,68.6080927 27.0228506,67.8178554 28.0683769,66.9798773 C28.3368394,67.0426942 28.6114594,67.0979731 28.8823849,67.1482267 L29.7025504,67.2964747 C30.3761697,68.46487 31.1384556,69.6181893 31.9857136,70.732562 C32.2960465,71.1446412 32.8748419,71.1861004 33.2356655,70.810455 C34.2097659,69.8129218 35.1038201,68.7638787 35.9141337,67.6909652 C36.1924481,67.6796581 36.4695311,67.6696074 36.746614,67.649506 C37.0236969,67.6331736 37.3007798,67.6130722 37.5766313,67.5841764 C38.5125558,68.5515574 39.527295,69.4749666 40.618386,70.3430969 C41.0223113,70.6672324 41.588792,70.5529055 41.8486342,70.1043925 C42.5518091,68.8895126 43.1650859,67.6482496 43.6896963,66.400705 C43.9556959,66.3253246 44.220464,66.2424063 44.4827692,66.1532062 C44.7475373,66.0677751 45.0110739,65.9760624 45.2721476,65.8793243 C46.4124978,66.5728234 47.6230423,67.2097873 48.8926978,67.7713709 C49.3606601,67.9799232 49.8877334,67.7324244 50.0256591,67.2273761 C50.4086493,65.8705299 50.6992784,64.5161964 50.9000096,63.1719136 L51.606879,62.7271696 L52.302665,62.2635805 C53.5797094,62.6455076 54.90355,62.9482853 56.2704924,63.1756827 C56.7790935,63.2611137 57.2236577,62.884212 57.234741,62.3603186 C57.2753798,60.9481935 57.2261206,59.5611952 57.0968152,58.2143998 L57.6743792,57.6013063 L58.2359339,56.9769058 C59.563469,57.0233904 60.9254855,56.9869566 62.3022797,56.85881 C62.8121123,56.8123254 63.1556951,56.3386856 63.0387046,55.8248429 C62.7369921,54.4491517 62.3552334,53.116176 61.8971229,51.8409918 L62.3084371,51.1047772 L62.7012792,50.3547428 C63.9980272,50.0657848 65.3058586,49.6851141 66.6112271,49.2077052 C67.0939671,49.0355868 67.309476,48.4878229 67.0718004,48.0217212 C66.4400514,46.7641258 65.7442654,45.5731164 64.9930628,44.4549746 L65.2098032,43.6358416 L65.4056085,42.8116832 C66.5939863,42.1973334 67.761429,41.4950399 68.9067051,40.7022899 C69.33526,40.4108193 69.4042229,39.8253653 69.065566,39.4371565 C68.1419563,38.3780627 67.1789392,37.4018873 66.1789777,36.5098865 L66.1789777,36.5098865 Z" id="Fill-3"></path>
                                <path d="M34.7726752,9.164411 C44.561707,9.164411 53.0946295,14.7224549 57.5217989,22.8987094 L59.3259166,22.8987094 C54.7645159,13.7839697 45.4964001,7.52865757 34.7726752,7.52865757 C24.0501819,7.52865757 14.7808345,13.7839697 10.2194339,22.8987094 L12.0247831,22.8987094 C16.4519524,14.7224549 24.984875,9.164411 34.7726752,9.164411" id="Fill-6"></path>
                                <path d="M34.7726752,62.1576711 C25.1264951,62.1576711 16.7081002,56.7529006 12.2292087,48.768866 L10.3807577,48.768866 C15.0012694,57.6989239 24.1856447,63.7971936 34.7726752,63.7971936 C45.3621688,63.7971936 54.5453126,57.6989239 59.1645927,48.768866 L57.3161418,48.768866 C52.8372503,56.7529006 44.4188554,62.1576711 34.7726752,62.1576711" id="Fill-8"></path>
                                <path d="M59.660879,35.6604757 C59.660879,36.4645327 59.0242041,37.110291 58.240983,37.110291 C57.455299,37.110291 56.818624,36.4645327 56.818624,35.6604757 C56.818624,34.8601878 57.455299,34.2119168 58.240983,34.2119168 C59.0242041,34.2119168 59.660879,34.8601878 59.660879,35.6604757" id="Fill-10"></path>
                                <path d="M12.7268496,35.6604757 C12.7268496,36.4645327 12.0901746,37.110291 11.3057221,37.110291 C10.5212696,37.110291 9.88459459,36.4645327 9.88459459,35.6604757 C9.88459459,34.8601878 10.5212696,34.2119168 11.3057221,34.2119168 C12.0901746,34.2119168 12.7268496,34.8601878 12.7268496,35.6604757" id="Fill-12"></path>
                                <text id="撤出" transform="translate(37.863165, 34.709490) rotate(-2.000000) translate(-37.863165, -34.709490) " font-family="MicrosoftYaHeiUI-Bold, Microsoft YaHei UI" font-size="17.7480008" font-weight="bold" line-spacing="27.1440012" letter-spacing="2.60304031">
                                    <tspan x="17.363165" y="39.70949">撤出</tspan>
                                </text>
                            </g>
                        </g>
                    </g>
                </g>
            </g>
        </g>
    </g>
</svg>