<?xml version="1.0" encoding="UTF-8"?>
<svg width="88px" height="88px" viewBox="0 0 88 88" version="1.1" xmlns="http://www.w3.org/2000/svg" xmlns:xlink="http://www.w3.org/1999/xlink">
    <!-- Generator: Sketch 59 (86127) - https://sketch.com -->
    <title>还款</title>
    <desc>Created with Sketch.</desc>
    <g id="--" stroke="none" stroke-width="1" fill="none" fill-rule="evenodd">
        <g id="弹窗" transform="translate(-484.000000, -249.000000)">
            <g id="还款_export" transform="translate(484.000000, 249.000000)">
                <g id="Trade-蓝">
                    <g id="Trade-买入_export_export-Copy-2">
                        <g id="Trade-买入_export" transform="translate(9.000000, 9.000000)">
                            <path d="M34.7820451,54.2930475 C29.2871829,54.2930475 24.3551069,51.9204018 20.8958805,48.1490132 L13.4109472,48.1490132 C17.7863944,55.460737 25.7158919,60.3762129 34.7820451,60.3762129 C43.8506613,60.3762129 51.7789273,55.460737 56.153143,48.1490132 L48.6694412,48.1490132 C45.2102148,51.9204018 40.2769073,54.2930475 34.7820451,54.2930475 M34.7820451,16.0835142 C40.4419256,16.0835142 45.5057699,18.6027422 48.9748481,22.5691598 L56.3588001,22.5691598 C52.0301491,15.0686181 43.99105,10.0028333 34.7820451,10.0028333 C25.5742717,10.0028333 17.5351726,15.0686181 13.2052901,22.5691598 L20.5892421,22.5691598 C24.0583203,18.6027422 29.1233961,16.0835142 34.7820451,16.0835142" id="Fill-1" fill="#3493D8"></path>
                            <path d="M63.6995272,43.2053388 L63.6872124,43.2326677 C63.1195003,45.3295399 62.317807,47.3618165 61.3092252,49.2847775 L61.3006048,49.3133487 L61.0629293,49.7605489 L60.8178648,50.2040225 L60.8006241,50.2263825 C59.7230794,52.1095923 58.443572,53.8797599 56.9978149,55.4946497 L56.9805742,55.5207364 L56.6382229,55.8909188 L56.2897141,56.259859 L56.2675475,56.2760079 C54.7626793,57.8387242 53.0927929,59.236225 51.2911382,60.4337278 L51.2702031,60.4548456 L50.8465741,60.7293769 L50.4204821,61.0001814 L50.3921581,61.0126037 C48.5523275,62.1455109 46.5905804,63.0771781 44.553713,63.7877296 L44.5278519,63.7989096 L44.0512693,63.9603985 L43.5685293,64.1156764 L43.5414367,64.1169186 C41.4799398,64.7516945 39.34948,65.1591436 37.1980851,65.3318126 L37.1709925,65.3380237 L36.6660858,65.3728059 L36.1648736,65.4001348 L36.1353181,65.3964082 C33.9765343,65.4920593 31.8103616,65.3578993 29.6848277,64.9926857 L29.6552722,64.9926857 L29.1602174,64.9020035 L28.6676255,64.8038679 L28.6393015,64.7951723 C26.5273139,64.3504565 24.4658169,63.6759295 22.5003754,62.7852557 L22.4720514,62.7765601 L22.0139409,62.5616556 L21.5632194,62.3417821 L21.5385898,62.3268755 C19.6051667,61.3616683 17.772725,60.1914943 16.0880608,58.8300181 L16.0621998,58.8163536 L15.6705892,58.4958601 L15.2863676,58.1691555 L15.2678954,58.1455533 C13.6275645,56.7319037 12.1460945,55.1294361 10.8444205,53.3940508 L10.8210224,53.3766597 L10.5230043,52.9629995 L10.2299121,52.5530659 L10.2175973,52.525737 C8.98119175,50.741905 7.92827665,48.8288817 7.10318528,46.8214496 L7.08594456,46.7953629 L6.89506522,46.3245604 L6.71773215,45.8512735 L6.71157475,45.8214602 C5.94928884,43.7904258 5.41482667,41.6699513 5.10941972,39.5159369 L5.10203084,39.488608 L5.03306798,38.9867499 L4.97518844,38.4786808 L4.9776514,38.4501097 C4.74613322,36.2886419 4.74613322,34.0911496 4.9776514,31.9284396 L4.97518844,31.8986262 L5.03306798,31.3942838 L5.10203084,30.8936679 L5.10941972,30.8638546 C5.41482667,28.7098401 5.94928884,26.5893657 6.71157475,24.5570891 L6.71773215,24.5285179 L6.89506522,24.055231 L7.08594456,23.5856708 L7.10318528,23.5583419 C7.92827665,21.5496675 8.98119175,19.6366443 10.2175973,17.8540545 L10.2299121,17.8267256 L10.5230043,17.4143076 L10.8210224,17.0056162 L10.8444205,16.9857407 C12.1460945,15.2528398 13.6275645,13.6503723 15.2678954,12.232996 L15.2851361,12.2131204 L15.6705892,11.8826891 L16.0621998,11.5621956 L16.0868293,11.5510156 C17.7714935,10.1870549 19.6039352,9.01812318 21.5361268,8.05291601 L21.5632194,8.03552489 L22.0139409,7.81689367 L22.4708199,7.60198911 L22.4979124,7.59702022 C24.4658169,6.70634642 26.5260824,6.02933495 28.6393015,5.58586139 L28.6676255,5.57468138 L29.1602174,5.47903022 L29.6552722,5.38586351 L29.6848277,5.38586351 C31.8103616,5.02189221 33.9765343,4.88524769 36.1353181,4.98089885 L36.1648736,4.97965663 L36.6660858,5.00698553 L37.1709925,5.03928333 L37.1980851,5.04673666 C39.34948,5.21940564 41.4799398,5.62933919 43.5414367,6.26163063 L43.5685293,6.26411508 L44.0512693,6.41939294 L44.5278519,6.58088191 L44.553713,6.59330414 C46.5905804,7.30509784 48.5523275,8.23303833 50.3921581,9.36967225 L50.4204821,9.38085226 L50.8465741,9.64793018 L51.2702031,9.92494588 L51.2899067,9.94730589 C53.0927929,11.1423243 54.7626793,12.539825 56.2675475,14.1025414 L56.2897141,14.1186903 L56.6382229,14.4876305 L56.9805742,14.8578129 L56.9978149,14.8838996 C58.443572,16.4987893 59.7230794,18.2689569 60.7981611,20.1521668 L60.8178648,20.1770112 L61.0629293,20.6180004 L61.3006048,21.0652006 L61.3092252,21.0925295 C62.317807,23.0167327 63.1195003,25.0502516 63.6872124,27.1458815 L63.6995272,27.1744527 L63.830064,27.6638885 L63.950749,28.1582932 L63.950749,28.1868643 C64.4519613,30.3023699 64.7167294,32.4737754 64.7549053,34.6501499 L64.7573682,34.6824477 L64.7647571,35.1892746 L64.7573682,35.6973438 L64.7549053,35.7259149 C64.7167294,37.9035316 64.4531927,40.0761794 63.950749,42.1916849 L63.950749,42.2214983 L63.830064,42.7134186 L63.6995272,43.2053388 Z M66.1883476,36.0277751 L66.2006624,35.1892746 L66.1883476,34.349532 C67.1883091,33.4650693 68.1513261,32.504831 69.0749359,31.4588793 C69.4135928,31.072548 69.3446299,30.4949144 68.916075,30.2042342 C67.7707989,29.4228761 66.6033562,28.725989 65.4149784,28.1210265 L65.2191731,27.3061283 L65.0024327,26.496199 C65.7524038,25.3906206 66.4494213,24.2129933 67.0811703,22.9695282 C67.3188459,22.5099058 67.103337,21.9658122 66.6205969,21.791901 C65.313997,21.3260674 64.0073971,20.9484316 62.710649,20.6614782 L62.317807,19.9211133 L61.9064928,19.1931707 C62.3621403,17.9298301 62.743899,16.6130738 63.0480745,15.254082 C63.165065,14.7460128 62.8214822,14.2801793 62.3116496,14.2317326 C60.9348554,14.1037836 59.5728389,14.0677592 58.2453038,14.1149636 L57.6837491,13.4963366 L57.1061851,12.8926163 C57.2354905,11.558469 57.2835182,10.1870549 57.2441109,8.79203862 C57.2330275,8.27403168 56.7884634,7.90260704 56.2798623,7.98583598 C54.9129199,8.20943609 53.5890792,8.51005403 52.3120348,8.88644756 L51.6162488,8.42806732 L50.9093795,7.98832042 C50.7086483,6.6616264 50.4180191,5.32251014 50.035029,3.98215166 C49.8971032,3.47780918 49.3700299,3.23557572 48.9020677,3.44178471 C47.6324122,3.99830056 46.4218677,4.62686533 45.2815175,5.31133014 C45.0204438,5.2169212 44.7569072,5.12748115 44.492139,5.04052555 C44.2298339,4.95481217 43.9650657,4.87282546 43.6990661,4.7933232 C43.1744558,3.56228033 42.5611789,2.33744858 41.8580041,1.1324924 C41.5981619,0.689018833 41.0316812,0.577218774 40.6277559,0.900196721 C39.5366649,1.75608828 38.5219257,2.67160653 37.5860011,3.6256337 C37.3101497,3.59706257 37.0330668,3.57967145 36.7559839,3.56228033 C36.4789009,3.54116254 36.201818,3.53246698 35.9235036,3.52377142 C35.11319,2.46042865 34.2191358,1.42193033 33.2450354,0.434363144 C32.8842118,0.0654229515 32.3054164,0.106416306 31.9950835,0.515107631 C31.1453626,1.61571709 30.3855396,2.75483547 29.7119202,3.91010274 L28.8917548,4.05668504 C28.6208293,4.10761617 28.3462093,4.16103176 28.0777467,4.22438512 C27.0322205,3.39830691 25.9091111,2.61570651 24.7207332,1.90515502 C24.2798635,1.63807711 23.7293921,1.81944165 23.5274294,2.29645523 C22.979421,3.57718701 22.5262365,4.87158324 22.1617185,6.16101058 L21.4043585,6.51007521 L20.6556189,6.87653095 C19.4376855,6.33989067 18.1606411,5.87033043 16.8294116,5.48027245 C16.3392827,5.33741682 15.8503853,5.64424586 15.7740335,6.15976836 C15.5634505,7.53987797 15.4403025,8.90259645 15.4033581,10.2429549 L14.7555998,10.7708997 L14.1226193,11.3125088 C12.8086305,11.0976043 11.4589288,10.9671709 10.0747457,10.9199664 C9.55998719,10.8951219 9.16714518,11.3274155 9.21763584,11.8392113 C9.34940417,13.2280165 9.56860754,14.5832816 9.8616997,15.8901001 C9.69175551,16.1099736 9.52550576,16.3360581 9.36418192,16.5621427 L8.88390486,17.2478497 C7.56006423,17.3671031 6.21528845,17.5745543 4.86189231,17.87393 C4.36437453,17.9882145 4.07990273,18.4950415 4.25846728,18.9819928 C4.73135546,20.2962646 5.26951207,21.5509097 5.8790945,22.7459281 L5.56383571,23.519833 L5.26704911,24.3049178 C4.01463431,24.7546025 2.76714542,25.2962117 1.5332028,25.9272609 C1.07262941,26.1595566 0.931009254,26.7222835 1.22163845,27.1520927 C2.00485951,28.3036333 2.84226568,29.3843671 3.72277363,30.386841 L3.61070898,31.2166459 L3.51834801,32.0501774 C2.41247928,32.7992378 1.34355494,33.6389805 0.30295463,34.5594676 C-0.0886558995,34.8985945 -0.0886558995,35.481197 0.30295463,35.8215661 C1.34355494,36.740811 2.41494224,37.5793114 3.51834801,38.329614 L3.61070898,39.1631456 L3.72277363,39.9941927 C2.84226568,40.9966665 2.00485951,42.0774004 1.22163845,43.2276988 C0.931009254,43.6537813 1.07262941,44.2202349 1.5332028,44.4537728 C2.76714542,45.0823376 4.01463431,45.625189 5.26704911,46.0773581 L5.56383571,46.8574741 L5.88032598,47.6338633 C5.26951207,48.8288817 4.73135546,50.0835268 4.25846728,51.3965564 C4.07990273,51.8835078 4.36437453,52.3915769 4.86189231,52.5058614 C6.21528845,52.8052372 7.56129571,53.0114462 8.88390486,53.133184 L9.36418192,53.8176488 C9.52550576,54.0449756 9.69175551,54.2685757 9.8616997,54.4884491 C9.56860754,55.7965098 9.34940417,57.151775 9.21763584,58.5393379 C9.16714518,59.052376 9.55998719,59.4834273 10.0747457,59.4598251 C11.4589288,59.4126206 12.8086305,59.280945 14.1226193,59.063556 L14.7555998,59.610134 L15.4033581,60.1368365 C15.441534,61.477195 15.5634505,62.8411557 15.7740335,64.2212653 C15.8503853,64.7367878 16.3392827,65.0423747 16.8294116,64.899519 C18.1606411,64.5082188 19.438917,64.0386586 20.6568503,63.5020183 L21.4043585,63.8697163 L22.1617185,64.2187809 C22.5262365,65.5082082 22.979421,66.8026045 23.5286609,68.0808518 C23.7293921,68.5603498 24.2798635,68.7379877 24.7207332,68.4733942 C25.9103425,67.7653272 27.0322205,66.983969 28.0777467,66.1554064 C28.3462093,66.2175175 28.6208293,66.2721753 28.8917548,66.3218642 L29.7119202,66.4684465 C30.3855396,67.6237138 31.1478255,68.7640744 31.9950835,69.8659261 C32.3054164,70.2733752 32.8842118,70.3143685 33.2450354,69.9429439 C34.2191358,68.9566189 35.11319,67.9193628 35.9235036,66.8585045 C36.201818,66.8473245 36.4789009,66.8373867 36.7559839,66.8175111 C37.0330668,66.8013622 37.3101497,66.7814867 37.5860011,66.7529156 C38.5219257,67.7094272 39.5366649,68.622461 40.6277559,69.480837 C41.0316812,69.8013305 41.5981619,69.6882882 41.8580041,69.2448146 C42.5611789,68.0435851 43.1744558,66.8162689 43.6990661,65.5827416 C43.9650657,65.5082082 44.2298339,65.4262215 44.492139,65.3380237 C44.7569072,65.2535525 45.0204438,65.1628703 45.2815175,65.0672191 C46.4218677,65.7529261 47.6324122,66.3827331 48.9020677,66.9380068 C49.3700299,67.1442158 49.8971032,66.8994979 50.035029,66.4001243 C50.4180191,65.0585236 50.7086483,63.7194073 50.9093795,62.3902288 L51.6162488,61.9504819 L52.3120348,61.4921017 C53.5890792,61.8697374 54.9129199,62.1691132 56.2798623,62.3939555 C56.7884634,62.4784267 57.2330275,62.1057598 57.2441109,61.5877529 C57.2847497,60.1914943 57.2354905,58.8200803 57.1061851,57.4884174 L57.6837491,56.8822126 L58.2453038,56.2648279 C59.5728389,56.3107901 60.9348554,56.2747656 62.3116496,56.1480589 C62.8214822,56.1020967 63.165065,55.6337786 63.0480745,55.1257095 C62.7463619,53.7654754 62.3646033,52.447477 61.9064928,51.1866208 L62.317807,50.4586782 L62.710649,49.7170711 C64.0073971,49.4313598 65.3152285,49.0549663 66.6205969,48.5829216 C67.103337,48.4127371 67.3188459,47.8711279 67.0811703,47.4102632 C66.4494213,46.1667981 65.7536353,44.9891709 65.0024327,43.8835925 L65.2191731,43.0736632 L65.4149784,42.258765 C66.6033562,41.651318 67.7707989,40.9569154 68.916075,40.1730728 C69.3446299,39.8848771 69.4135928,39.3060012 69.0749359,38.9221544 C68.1513261,37.8749605 67.1883091,36.9097533 66.1883476,36.0277751 L66.1883476,36.0277751 Z" id="Fill-3" fill="#3493D8"></path>
                            <path d="M34.7820451,8.98955206 C44.5710769,8.98955206 53.1039994,14.485146 57.5311688,22.5695325 L59.3352865,22.5695325 C54.7738858,13.5572056 45.5057699,7.37217788 34.7820451,7.37217788 C24.0595518,7.37217788 14.7902044,13.5572056 10.2288038,22.5695325 L12.034153,22.5695325 C16.4613223,14.485146 24.9942448,8.98955206 34.7820451,8.98955206" id="Fill-6" fill="#3493D8"></path>
                            <path d="M34.7820451,61.3873823 C25.135865,61.3873823 16.7174701,56.0433395 12.2385786,48.1490132 L10.3901276,48.1490132 C15.0106393,56.9787333 24.1950145,63.0084832 34.7820451,63.0084832 C45.3715387,63.0084832 54.5546824,56.9787333 59.1739626,48.1490132 L57.3255117,48.1490132 C52.8466202,56.0433395 44.4282252,61.3873823 34.7820451,61.3873823" id="Fill-8" fill="#3493D8"></path>
                            <path d="M59.6702489,35.1879082 C59.6702489,35.9829308 59.0335739,36.6214334 58.2503529,36.6214334 C57.4646689,36.6214334 56.8279939,35.9829308 56.8279939,35.1879082 C56.8279939,34.3966122 57.4646689,33.7556252 58.2503529,33.7556252 C59.0335739,33.7556252 59.6702489,34.3966122 59.6702489,35.1879082" id="Fill-10" fill="#3493D8"></path>
                            <path d="M12.7362195,35.1879082 C12.7362195,35.9829308 12.0995445,36.6214334 11.315092,36.6214334 C10.5306394,36.6214334 9.89396447,35.9829308 9.89396447,35.1879082 C9.89396447,34.3966122 10.5306394,33.7556252 11.315092,33.7556252 C12.0995445,33.7556252 12.7362195,34.3966122 12.7362195,35.1879082" id="Fill-12" fill="#3493D8"></path>
                            <text id="撤出" font-family="MicrosoftYaHeiUI-Bold, Microsoft YaHei UI" font-size="18" font-weight="bold" letter-spacing="2.05144745" fill="#3F98D8">
                                <tspan x="17.4485526" y="42">还款</tspan>
                            </text>
                        </g>
                    </g>
                </g>
            </g>
        </g>
    </g>
</svg>