<?xml version="1.0" encoding="UTF-8"?>
<svg width="16px" height="16px" viewBox="0 0 16 16" version="1.1" xmlns="http://www.w3.org/2000/svg" xmlns:xlink="http://www.w3.org/1999/xlink">
    <!-- Generator: Sketch 52.3 (67297) - http://www.bohemiancoding.com/sketch -->
    <title>锁定-1</title>
    <desc>Created with Sketch.</desc>
    <g id="--" stroke="none" stroke-width="1" fill="none" fill-rule="evenodd">
        <g id="控件" transform="translate(-813.000000, -951.000000)">
            <g id="弹窗输入框-2_export" transform="translate(22.000000, 928.000000)">
                <g id="弹窗输入框-2">
                    <g id="锁定-normal-copy-2" transform="translate(791.000000, 23.000000)">
                        <g id="锁定">
                            <g>
                                <g>
                                    <rect id="Rectangle" fill="#000000" opacity="0" x="0" y="0" width="16" height="16"></rect>
                                    <path d="M12.6875,8.2609375 L12.6875,12.95 C12.6875,13.1671875 12.6125,13.3515625 12.459375,13.503125 C12.3078125,13.6546875 12.121875,13.73125 11.90625,13.73125 L4.09375,13.73125 C3.8765625,13.73125 3.6921875,13.65625 3.540625,13.503125 C3.3890625,13.3515625 3.3125,13.165625 3.3125,12.95 L3.3125,8.2609375 C3.3125,8.04375 3.3875,7.859375 3.540625,7.7078125 C3.6921875,7.55625 3.878125,7.4796875 4.09375,7.4796875 L4.3546875,7.4796875 L4.3546875,5.9171875 C4.3546875,4.91875 4.7125,4.0609375 5.4296875,3.346875 C6.146875,2.6328125 7.003125,2.271875 8,2.271875 C8.996875,2.271875 9.85625,2.6296875 10.5703125,3.346875 C11.2859375,4.0625 11.6453125,4.9203125 11.6453125,5.9171875 L11.6453125,7.4796875 L11.90625,7.4796875 C12.1234375,7.4796875 12.3078125,7.5546875 12.459375,7.7078125 C12.6109375,7.859375 12.6875,8.04375 12.6875,8.2609375 Z M10.08125,7.4796875 L10.08125,5.9171875 C10.08125,5.3421875 9.878125,4.8515625 9.4703125,4.44375 C9.0625,4.0359375 8.571875,3.8328125 7.996875,3.8328125 C7.421875,3.8328125 6.93125,4.0359375 6.5234375,4.44375 C6.115625,4.8515625 5.9125,5.3421875 5.9125,5.9171875 L5.9125,7.4796875 L10.08125,7.4796875 Z" id="Shape" fill="#616266" fill-rule="nonzero"></path>
                                </g>
                            </g>
                        </g>
                    </g>
                </g>
            </g>
        </g>
    </g>
</svg>