<?xml version="1.0" encoding="UTF-8"?>
<svg width="30px" height="30px" viewBox="0 0 30 30" version="1.1" xmlns="http://www.w3.org/2000/svg" xmlns:xlink="http://www.w3.org/1999/xlink">
    <!-- Generator: Sketch 59 (86127) - https://sketch.com -->
    <title>关闭默认</title>
    <desc>Created with Sketch.</desc>
    <g id="规范及控件" stroke="none" stroke-width="1" fill="none" fill-rule="evenodd">
        <g id="顶部栏" transform="translate(-521.000000, -245.000000)">
            <g id="关闭默认_export" transform="translate(521.000000, 245.000000)">
                <g id="关闭默认">
                    <rect id="Rectangle-Copy-17" fill="#BA382D" fill-rule="nonzero" opacity="0" x="0" y="0" width="30" height="30"></rect>
                    <g id="关闭" transform="translate(7.000000, 7.000000)">
                        <rect id="Rectangle" fill-rule="nonzero" x="0" y="0" width="16" height="16"></rect>
                        <g stroke-width="1" fill-rule="evenodd" transform="translate(3.000000, 3.000000)" fill="#D3DDE6" id="Path">
                            <polygon fill-rule="nonzero" points="8 4 8 3 9 3 9 2 10 2 10 0 8 0 8 1 7 1 7 2 6 2 6 3 4 3 4 2 3 2 3 1 2 1 2 0 0 0 0 2 1 2 1 3 2 3 2 4 3 4 3 6 2 6 2 7 1 7 1 8 0 8 0 10 2 10 2 9 3 9 3 8 4 8 4 7 6 7 6 8 7 8 7 9 8 9 8 10 10 10 10 8 9 8 9 7 8 7 8 6 7 6 7 4"></polygon>
                        </g>
                    </g>
                </g>
            </g>
        </g>
    </g>
</svg>