<?xml version="1.0" encoding="UTF-8"?>
<svg width="16px" height="16px" viewBox="0 0 16 16" version="1.1" xmlns="http://www.w3.org/2000/svg" xmlns:xlink="http://www.w3.org/1999/xlink">
    <!-- Generator: Sketch 59 (86127) - https://sketch.com -->
    <title>客服-悬停</title>
    <desc>Created with Sketch.</desc>
    <g id="规范及控件" stroke="none" stroke-width="1" fill="none" fill-rule="evenodd">
        <g id="顶部栏" transform="translate(-307.000000, -291.000000)">
            <g id="客服-默认_export-copy" transform="translate(307.000000, 291.000000)">
                <g id="客服-默认">
                    <rect id="Rectangle" x="0" y="0" width="16" height="16"></rect>
                    <path d="M8,9.416 C8.68047059,9.416 9.23247059,8.94517647 9.23247059,8.36352941 L10.4656471,8.36352941 C10.4656471,9.52611765 9.36164706,10.4691765 8,10.4691765 C6.63764706,10.4691765 5.53364706,9.52611765 5.53364706,8.36352941 L6.76682353,8.36352941 C6.76682353,8.94517647 7.31882353,9.416 8,9.416 Z M13.4,9.67858824 L12.8,9.67858824 L12.8,11.2068235 C12.8,12.5698824 11.5908235,13.6745882 10.1,13.6745882 L9.76329412,13.6745882 L9.76329412,13.676 C9.76329412,13.8538824 9.59035294,14 9.37929412,14 L6.61435294,14 C6.40329412,14 6.23105882,13.8538824 6.23105882,13.676 L6.23105882,12.9072941 C6.23105882,12.7287059 6.40329412,12.5832941 6.61435294,12.5832941 L8,12.5832941 L8,12.5776471 L10.1,12.5776471 C10.928,12.5776471 11.8816471,11.9338824 11.8816471,11.1764706 L11.8816471,6.94117647 C11.8816471,5.12352941 9.98776471,3.09694118 8,3.09694118 C6.01152941,3.09694118 4.11764706,5.12352941 4.11764706,6.94117647 L4.11764706,9.76470588 L2.6,9.67858824 C2.44047059,9.67858824 2.288,9.62070588 2.17576471,9.51764706 C2.06282353,9.41458824 2,9.27552941 2,9.12941176 L2,6.93623529 C2,6.63270588 2.26823529,6.38776471 2.6,6.38776471 L3.2,6.38776471 C3.2,3.96447059 5.34870588,2 8,2 C10.6505882,2 12.8,3.96447059 12.8,6.38776471 L13.4,6.38776471 C13.5588235,6.38776471 13.7112941,6.44564706 13.8242353,6.548 C13.9364706,6.65105882 14,6.79082353 14,6.93623529 L14,9.12941176 C14,9.43294118 13.7310588,9.67858824 13.4,9.67858824 Z" id="形状" stroke="#F6FAFF" stroke-width="0.3" fill="#F6FAFF"></path>
                </g>
            </g>
        </g>
    </g>
</svg>