<?xml version="1.0" encoding="UTF-8"?>
<svg width="16px" height="16px" viewBox="0 0 16 16" version="1.1" xmlns="http://www.w3.org/2000/svg" xmlns:xlink="http://www.w3.org/1999/xlink">
    <!-- Generator: Sketch 59 (86127) - https://sketch.com -->
    <title>消息提醒-默认</title>
    <desc>Created with Sketch.</desc>
    <g id="规范及控件" stroke="none" stroke-width="1" fill="none" fill-rule="evenodd">
        <g id="顶部栏" transform="translate(-379.000000, -253.000000)">
            <g id="消息提醒-默认_export" transform="translate(379.000000, 253.000000)">
                <g id="消息">
                    <g>
                        <rect id="Rectangle" fill="#000000" fill-rule="nonzero" opacity="0" x="0" y="0" width="16" height="16"></rect>
                        <path d="M12.9,11.9 C13.47263,11.6638708 13.5887162,11.6877912 14,11.9 C13.2968424,11.4964275 13.0315026,11.0316869 12.9,10.8 L12.9,7.5 C13.0315026,5.36424355 11.5074572,3.55141348 9.6,3.1 L9.6,3.1 C9.47097426,2.44594595 9.03648034,2 8.5,2 C7.96517092,2 7.530677,2.44765455 7.4,3.1 L7.4,3.1 C5.49419408,3.55141348 3.97014863,5.36253495 4.1,7.5 L4.1,10.8 C3.97014863,11.0316869 3.70315046,11.4964275 3,11.9 C3.41459343,11.6877912 3.52902122,11.6621622 4.1,11.9 C3.28855703,11.6689966 3,11.9645853 3,11.9 C3,12.7027027 3.28855703,13 4.1,13 L12.9,13 C13.7114359,13 14,12.7027027 14,11.9 C14.0016513,11.9680025 13.7130942,11.6689966 12.9,11.9 L12.9,11.9 Z M8,14 C9.32838115,14 10,13.5522541 10,13 L7,13 C7,13.5522541 7.67008197,14 9,14 L8,14 Z" id="Shape" fill="#D3DDE6" fill-rule="nonzero"></path>
                        <circle id="Oval" fill="#E42122" cx="12.5" cy="4.5" r="2.5"></circle>
                    </g>
                </g>
            </g>
        </g>
    </g>
</svg>