<?xml version="1.0" encoding="UTF-8"?>
<svg width="16px" height="16px" viewBox="0 0 16 16" version="1.1" xmlns="http://www.w3.org/2000/svg" xmlns:xlink="http://www.w3.org/1999/xlink">
    <!-- Generator: Sketch 59 (86127) - https://sketch.com -->
    <title>设置-悬停</title>
    <desc>Created with Sketch.</desc>
    <g id="规范及控件" stroke="none" stroke-width="1" fill="none" fill-rule="evenodd">
        <g id="顶部栏" transform="translate(-216.000000, -291.000000)" fill="#F6FAFF">
            <g id="设置_export-悬停" transform="translate(216.000000, 291.000000)">
                <g id="设置">
                    <g id="Shape">
                        <path d="M6.271,7.999 C6.271,7.507 6.438,7.098 6.775,6.763 C7.114,6.423 7.522,6.256 8.014,6.256 C8.505,6.256 8.913,6.422 9.252,6.763 C9.59,7.098 9.756,7.508 9.756,7.999 C9.756,8.49 9.59,8.902 9.252,9.244 C8.912,9.581 8.504,9.748 8.014,9.748 C7.52,9.748 7.113,9.582 6.775,9.244 C6.435,8.899 6.271,8.482 6.271,7.999 Z M3.808,9.134 C3.911,9.5 4.063,9.856 4.248,10.19 L3.099,11.598 L4.401,12.9 L5.811,11.752 C6.143,11.938 6.507,12.093 6.87,12.197 L7.062,13.999 L8.939,13.999 L9.127,12.197 C9.491,12.093 9.837,11.937 10.188,11.752 L11.591,12.9 L12.906,11.599 L11.748,10.19 C11.93,9.859 12.088,9.501 12.194,9.133 L13.997,8.938 L13.997,7.062 L12.195,6.87 C12.089,6.505 11.926,6.167 11.75,5.817 L12.906,4.408 L11.593,3.092 L10.189,4.248 C9.831,4.068 9.494,3.909 9.128,3.802 L8.938,2.002 L7.063,2.002 L6.871,3.802 C6.494,3.908 6.142,4.069 5.811,4.247 L4.401,3.091 L3.098,4.406 L4.248,5.816 C4.069,6.167 3.917,6.505 3.808,6.87 L2.002,7.062 L2.002,8.938 L3.808,9.134 Z" fill-rule="nonzero"></path>
                    </g>
                </g>
            </g>
        </g>
    </g>
</svg>