<?xml version="1.0" encoding="UTF-8"?>
<svg width="16px" height="16px" viewBox="0 0 16 16" version="1.1" xmlns="http://www.w3.org/2000/svg" xmlns:xlink="http://www.w3.org/1999/xlink">
    <!-- Generator: Sketch 59 (86127) - https://sketch.com -->
    <title>打开主窗口-默认</title>
    <desc>Created with Sketch.</desc>
    <g id="规范及控件" stroke="none" stroke-width="1" fill="none" fill-rule="evenodd">
        <g id="切图-蓝" transform="translate(-619.000000, -131.000000)" fill="#D3DDE6">
            <g id="打开主窗口-copy_export" transform="translate(619.000000, 131.000000)">
                <g id="打开主窗口">
                    <g transform="translate(2.000000, 2.000000)" id="Combined-Shape">
                        <g>
                            <g>
                                <path d="M12,0 L12,12 L0,12 L0,0 L12,0 Z M10,2 L2,2 L2,10 L10,10 L10,2 Z M9,6 L9,9 L6,9 L6,8 L7,8 L7,7 L8,7 L8,6 L9,6 Z M7,6 L7,7 L6,7 L6,6 L7,6 Z M6,3 L6,4 L5,4 L5,5 L4,5 L4,6 L3,6 L3,3 L6,3 Z M6,5 L6,6 L5,6 L5,5 L6,5 Z" fill-rule="nonzero"></path>
                            </g>
                        </g>
                    </g>
                </g>
            </g>
        </g>
    </g>
</svg>