<?xml version="1.0" encoding="UTF-8"?>
<svg width="5px" height="9px" viewBox="0 0 5 9" version="1.1" xmlns="http://www.w3.org/2000/svg" xmlns:xlink="http://www.w3.org/1999/xlink">
    <!-- Generator: Sketch 59 (86127) - https://sketch.com -->
    <title>上一页</title>
    <desc>Created with Sketch.</desc>
    <g id="-" stroke="none" stroke-width="1" fill="none" fill-rule="evenodd">
        <g id="分页器" transform="translate(-124.000000, -568.000000)" fill="#333333">
            <g id="上一页" transform="translate(126.500000, 572.500000) scale(-1, 1) translate(-126.500000, -572.500000) translate(124.000000, 568.000000)">
                <path d="M1,8 L1,9 L0,9 L0,8 L1,8 Z M2,7 L2,8 L1,8 L1,7 L2,7 Z M3,6 L3,7 L2,7 L2,6 L3,6 Z M4,5 L4,6 L3,6 L3,5 L4,5 Z M5,4 L5,5 L4,5 L4,4 L5,4 Z M4,3 L4,4 L3,4 L3,3 L4,3 Z M3,2 L3,3 L2,3 L2,2 L3,2 Z M2,1 L2,2 L1,2 L1,1 L2,1 Z M1,0 L1,1 L0,1 L0,0 L1,0 Z" id="Combined-Shape"></path>
            </g>
        </g>
    </g>
</svg>