<?xml version="1.0" encoding="UTF-8"?>
<svg width="71px" height="72px" viewBox="0 0 71 72" version="1.1" xmlns="http://www.w3.org/2000/svg" xmlns:xlink="http://www.w3.org/1999/xlink">
    <!-- Generator: Sketch 52.3 (67297) - http://www.bohemiancoding.com/sketch -->
    <title>Trade-买入</title>
    <desc>Created with Sketch.</desc>
    <defs>
        <polygon id="path-1" points="0 0.799031629 70.0674375 0.799031629 70.0674375 71.6110394 0 71.6110394"></polygon>
    </defs>
    <g id="--" stroke="none" stroke-width="1" fill="none" fill-rule="evenodd" opacity="0.729399182">
        <g id="弹窗" transform="translate(-110.000000, -436.000000)">
            <g id="Trade-买入" transform="translate(101.000000, 427.000000)">
                <g id="Group-22-Copy-4">
                    <g id="Group-22-Copy-2" transform="translate(44.631793, 44.500000) rotate(-15.000000) translate(-44.631793, -44.500000) translate(9.131793, 8.000000)">
                        <path d="M35.1678193,55.9827189 C29.6105154,55.9827189 24.6223931,53.5831113 21.1238574,49.768866 L13.553868,49.768866 C17.9790362,57.1636776 25.9986416,62.1350112 35.1678193,62.1350112 C44.3394879,62.1350112 52.3578478,57.1636776 56.7817706,49.768866 L49.2130266,49.768866 C45.7144909,53.5831113 40.7251231,55.9827189 35.1678193,55.9827189 M35.1678193,17.3389864 C40.8920166,17.3389864 46.0134046,19.8868419 49.5219041,23.8983325 L56.9897647,23.8983325 C52.6119245,16.3125574 44.4814719,11.1892068 35.1678193,11.1892068 C25.8554121,11.1892068 17.7249595,16.3125574 13.3458739,23.8983325 L20.8137344,23.8983325 C24.3222339,19.8868419 29.4448674,17.3389864 35.1678193,17.3389864" id="Fill-1" fill="#E94242"></path>
                        <g id="Group-5" transform="translate(0.000000, 0.457559)">
                            <mask id="mask-2" fill="white">
                                <use xlink:href="#path-1"></use>
                            </mask>
                            <g id="Clip-4"></g>
                            <path d="M64.4139091,44.3114548 L64.4014544,44.3390943 C63.827291,46.4597946 63.0164876,48.5151653 61.9964446,50.4599781 L61.9877263,50.4888739 L61.7473498,50.941156 L61.4995005,51.389669 L61.4820639,51.4122831 C60.3922744,53.3168931 59.0982272,55.1071762 57.636041,56.740417 L57.6186044,56.7668001 L57.2723627,57.1411891 L56.9198936,57.5143218 L56.8974751,57.5306542 C55.3755062,59.1111287 53.6866438,60.5245101 51.8645157,61.735621 L51.8433426,61.7569787 L51.4148997,62.0346297 L50.9839658,62.3085116 L50.9553199,62.321075 C49.0945821,63.4668562 47.1105424,64.4091105 45.0505289,65.1277364 L45.0243739,65.1390434 L44.5423756,65.3023675 L44.0541499,65.4594099 L44.0267494,65.4606662 C41.9418264,66.1026555 39.7871568,66.5147347 37.6113142,66.6893658 L37.5839138,66.6956475 L37.0732696,66.730825 L36.5663617,66.7584645 L36.5364704,66.7546954 C34.3531549,66.8514336 32.1623666,66.7157489 30.0126789,66.3463853 L29.9827875,66.3463853 L29.4821071,66.2546725 L28.9839176,66.1554217 L28.9552717,66.1466274 C26.8192842,65.696858 24.7343612,65.0146659 22.7465851,64.1138708 L22.7179392,64.1050764 L22.254623,63.8877298 L21.7987796,63.6653577 L21.7738701,63.6502817 C19.8184763,62.6741062 17.9652114,61.4906349 16.2614033,60.1136873 L16.2352484,60.0998676 L15.8391877,59.7757321 L15.4505999,59.4453149 L15.4319178,59.4214445 C13.7729468,57.9917306 12.2746419,56.3710533 10.9581762,54.6159476 L10.9345122,54.5983589 L10.6331075,54.179998 L10.3366848,53.7654061 L10.32423,53.7377667 C9.07377439,51.9336638 8.00889434,49.9989017 7.17442693,47.9686578 L7.1569903,47.9422747 L6.96394187,47.4661222 L6.78459365,46.987457 L6.77836629,46.9573049 C6.00741804,44.9031905 5.46688244,42.7586198 5.15800495,40.5801279 L5.15053211,40.5524884 L5.08078558,40.0449275 L5.02224831,39.5310848 L5.02473926,39.502189 C4.7905902,37.3161591 4.7905902,35.0936953 5.02473926,32.906409 L5.02224831,32.8762569 L5.08078558,32.3661832 L5.15053211,31.8598786 L5.15800495,31.8297265 C5.46688244,29.6512346 6.00741804,27.5066638 6.77836629,25.4512932 L6.78459365,25.4223974 L6.96394187,24.9437322 L7.1569903,24.468836 L7.17442693,24.4411966 C8.00889434,22.4096964 9.07377439,20.4749342 10.32423,18.6720877 L10.3366848,18.6444483 L10.6331075,18.2273437 L10.9345122,17.8140081 L10.9581762,17.7939067 C12.2746419,16.0413138 13.7729468,14.4206364 15.4319178,12.9871536 L15.4493545,12.9670521 L15.8391877,12.6328659 L16.2352484,12.3087305 L16.2601579,12.2974234 C17.9639659,10.9179632 19.8172309,9.73574812 21.7713792,8.75957269 L21.7987796,8.74198394 L22.254623,8.52086827 L22.7166937,8.30352162 L22.7440942,8.29849626 C24.7343612,7.39770117 26.8180388,6.71299639 28.9552717,6.26448335 L28.9839176,6.2531763 L29.4821071,6.1564382 L29.9827875,6.06221277 L30.0126789,6.06221277 C32.1623666,5.69410543 34.3531549,5.55590814 36.5364704,5.65264624 L36.5663617,5.6513899 L37.0732696,5.67902936 L37.5839138,5.71169418 L37.6113142,5.71923221 C39.7871568,5.89386334 41.9418264,6.30845522 44.0267494,6.94793179 L44.0541499,6.95044447 L44.5423756,7.10748685 L45.0243739,7.27081093 L45.0505289,7.28337432 C47.1105424,8.00325659 49.0945821,8.94174185 50.9553199,10.0912921 L50.9839658,10.1025991 L51.4148997,10.372712 L51.8433426,10.6528756 L51.8632702,10.6754897 C53.6866438,11.8840879 55.3755062,13.2974693 56.8974751,14.8779438 L56.9198936,14.8942762 L57.2723627,15.2674089 L57.6186044,15.6417979 L57.636041,15.6681811 C59.0982272,17.3014218 60.3922744,19.091705 61.479573,20.9963149 L61.4995005,21.0214417 L61.7473498,21.4674421 L61.9877263,21.9197241 L61.9964446,21.9473636 C63.0164876,23.8934328 63.827291,25.9500598 64.4014544,28.0695037 L64.4139091,28.0983995 L64.5459293,28.5933971 L64.6679857,29.09342 L64.6679857,29.1223158 C65.1748936,31.2618612 65.4426704,33.4579419 65.4812801,35.6590479 L65.483771,35.6917127 L65.4912439,36.204299 L65.483771,36.7181417 L65.4812801,36.7470375 C65.4426704,38.9493998 65.176139,41.1467368 64.6679857,43.2862822 L64.6679857,43.3164343 L64.5459293,43.8139446 L64.4139091,44.3114548 Z M66.9310115,37.0523279 L66.9434663,36.204299 L66.9310115,35.3550138 C67.9423362,34.4605004 68.9162967,33.4893503 69.850402,32.4315129 C70.1929073,32.0407914 70.1231607,31.4565938 69.6897359,31.1626104 C68.5314453,30.3723732 67.3507362,29.667567 66.148854,29.0557299 L65.9508237,28.2315715 L65.7316203,27.4124384 C66.4901138,26.2942967 67.195052,25.1032873 67.83398,23.8456919 C68.0743564,23.3808464 67.8563985,22.8305699 67.3681728,22.6546825 C66.0467252,22.1835553 64.7252775,21.8016283 63.4137937,21.5114139 L63.0164876,20.7626359 L62.6004993,20.0264212 C63.0613246,18.7487244 63.4474215,17.417005 63.7550535,16.0425701 C63.8733735,15.5287274 63.5258863,15.0576003 63.0102602,15.0086031 C61.6178206,14.8792002 60.2403266,14.8427663 58.8977059,14.8905072 L58.3297699,14.2648504 L57.7456427,13.6542696 C57.8764174,12.3049615 57.9249909,10.9179632 57.8851358,9.50709442 C57.8739265,8.98320104 57.4243105,8.60755566 56.9099298,8.69173038 C55.527454,8.91787141 54.1885697,9.22190545 52.8970134,9.60257618 L52.1933208,9.13898708 L51.4784188,8.69424306 C51.2754066,7.35247296 50.9814748,5.99813948 50.5941325,4.64254965 C50.4546394,4.132476 49.9215767,3.88748989 49.4482966,4.09604217 C48.1642132,4.65888206 46.9399125,5.29458962 45.7866038,5.98683243 C45.5225634,5.89135066 45.256032,5.80089425 44.9882552,5.71295052 C44.7229693,5.62626312 44.4551924,5.54334475 44.1861701,5.46293905 C43.6555983,4.21790706 43.0353523,2.97915677 42.3241868,1.7605079 C42.0613919,1.31199486 41.488474,1.19892435 41.0799586,1.5255725 C39.9764688,2.39119009 38.9501985,3.31711197 38.0036384,4.28198035 C37.7246523,4.25308455 37.4444207,4.23549581 37.1641891,4.21790706 C36.8839575,4.19654929 36.6037259,4.18775492 36.3222489,4.17896055 C35.5027272,3.10353433 34.5985132,2.05323489 33.6133435,1.05444536 C33.2484197,0.681312661 32.663047,0.72277185 32.3491877,1.13610739 C31.4898108,2.24922378 30.7213535,3.40128668 30.0400793,4.56968199 L29.2105938,4.71793 C28.9365896,4.7694399 28.658849,4.82346248 28.3873357,4.88753577 C27.3299285,4.05207031 26.1940564,3.26057671 24.9921743,2.54195078 C24.5462947,2.27183789 23.9895679,2.45526339 23.7853102,2.93769758 C23.2310744,4.23298313 22.7727401,5.54208841 22.4040798,6.84616833 L21.6381135,7.1991996 L20.8808654,7.56981962 C19.6490919,7.02708115 18.3575357,6.55218499 17.0111785,6.15769454 C16.51548,6.01321555 16.0210269,6.32353129 15.9438075,6.84491199 C15.7308315,8.24070466 15.6062842,9.61890859 15.5689199,10.9744984 L14.9138008,11.5084425 L14.2736273,12.0562063 C12.9447068,11.8388597 11.5796676,11.7069441 10.1797551,11.6592032 C9.65914705,11.6340764 9.26184092,12.0712824 9.31290535,12.5888941 C9.44617104,13.9934811 9.66786536,15.364147 9.96428811,16.6858157 C9.79241274,16.9081877 9.62427378,17.1368414 9.46111672,17.3654951 L8.97538196,18.0589943 C7.63649769,18.1796028 6.27644037,18.3894114 4.90766473,18.6921891 C4.40449334,18.8077723 4.1167889,19.3203587 4.29738259,19.8128436 C4.77564451,21.1420503 5.31991654,22.4109527 5.93642604,23.6195509 L5.61758476,24.4022501 L5.31742559,25.1962563 C4.05077879,25.6510511 2.78911389,26.1988149 1.54114921,26.8370351 C1.07534203,27.0719705 0.932112547,27.6410921 1.22604435,28.0757854 C2.01816565,29.2404117 2.86508779,30.3334267 3.75560152,31.3472923 L3.64226341,32.1865268 L3.54885288,33.0295303 C2.43041746,33.7871027 1.34934625,34.6363879 0.29692094,35.5673351 C-0.0991397097,35.9103157 -0.0991397097,36.4995387 0.29692094,36.8437756 C1.34934625,37.7734665 2.4329084,38.6214953 3.54885288,39.3803241 L3.64226341,40.2233276 L3.75560152,41.0638184 C2.86508779,42.077684 2.01816565,43.170699 1.22604435,44.3340689 C0.932112547,44.7649932 1.07534203,45.3378838 1.54114921,45.5740756 C2.78911389,46.2097831 4.05077879,46.7588033 5.31742559,47.2161107 L5.61758476,48.0050916 L5.93767151,48.7903035 C5.31991654,49.9989017 4.77564451,51.2678041 4.29738259,52.5957545 C4.1167889,53.0882394 4.40449334,53.602082 4.90766473,53.7176652 C6.27644037,54.0204429 7.63774317,54.2289952 8.97538196,54.3521164 L9.46111672,55.0443593 C9.62427378,55.2742693 9.79241274,55.5004103 9.96428811,55.7227823 C9.66786536,57.0457073 9.44617104,58.4163732 9.31290535,59.8197039 C9.26184092,60.338572 9.65914705,60.7745216 10.1797551,60.7506512 C11.5796676,60.7029103 12.9447068,60.5697384 14.2736273,60.349879 L14.9138008,60.9026682 L15.5689199,61.435356 C15.6075296,62.7909458 15.7308315,64.170406 15.9438075,65.5661987 C16.0210269,66.0875794 16.51548,66.3966388 17.0111785,66.2521598 C18.3575357,65.856413 19.6503374,65.3815169 20.8821109,64.8387784 L21.6381135,65.2106548 L22.4040798,65.563686 C22.7727401,66.867766 23.2310744,68.1768712 23.7865557,69.4696441 C23.9895679,69.954591 24.5462947,70.1342475 24.9921743,69.8666472 C26.1953019,69.150534 27.3299285,68.3602967 28.3873357,67.5223186 C28.658849,67.5851356 28.9365896,67.6404145 29.2105938,67.690668 L30.0400793,67.838916 C30.7213535,69.0073113 31.4923017,70.1606306 32.3491877,71.2750033 C32.663047,71.6870825 33.2484197,71.7285417 33.6133435,71.3528963 C34.5985132,70.3553631 35.5027272,69.30632 36.3222489,68.2334065 C36.6037259,68.2220994 36.8839575,68.2120487 37.1641891,68.1919473 C37.4444207,68.1756149 37.7246523,68.1555135 38.0036384,68.1266177 C38.9501985,69.0939987 39.9764688,70.0174079 41.0799586,70.8855382 C41.488474,71.2096737 42.0613919,71.0953468 42.3241868,70.6468338 C43.0353523,69.4319539 43.6555983,68.190691 44.1861701,66.9431463 C44.4551924,66.867766 44.7229693,66.7848476 44.9882552,66.6956475 C45.256032,66.6102165 45.5225634,66.5185037 45.7866038,66.4217656 C46.9399125,67.1152648 48.1642132,67.7522286 49.4482966,68.3138122 C49.9215767,68.5223645 50.4546394,68.2748657 50.5941325,67.7698174 C50.9814748,66.4129712 51.2754066,65.0586377 51.4784188,63.714355 L52.1933208,63.2696109 L52.8970134,62.8060218 C54.1885697,63.1879489 55.527454,63.4907266 56.9099298,63.718124 C57.4243105,63.803555 57.8739265,63.4266533 57.8851358,62.9027599 C57.9262364,61.4906349 57.8764174,60.1036366 57.7456427,58.7568411 L58.3297699,58.1437477 L58.8977059,57.5193472 C60.2403266,57.5658317 61.6178206,57.5293979 63.0102602,57.4012513 C63.5258863,57.3547667 63.8733735,56.8811269 63.7550535,56.3672843 C63.4499124,54.991593 63.0638156,53.6586173 62.6004993,52.3834332 L63.0164876,51.6472185 L63.4137937,50.8971841 C64.7252775,50.6082261 66.0479706,50.2275554 67.3681728,49.7501465 C67.8563985,49.5780281 68.0743564,49.0302643 67.83398,48.5641625 C67.195052,47.3065671 66.4913593,46.1155577 65.7316203,44.997416 L65.9508237,44.1782829 L66.148854,43.3541245 C67.3507362,42.7397747 68.5314453,42.0374812 69.6897359,41.2447312 C70.1231607,40.9532606 70.1929073,40.3678066 69.850402,39.9795978 C68.9162967,38.920504 67.9423362,37.9443286 66.9310115,37.0523279 Z" id="Fill-3" fill="#E94242" mask="url(#mask-2)"></path>
                        </g>
                        <path d="M35.1678193,10.164411 C45.06809,10.164411 53.6979776,15.7224549 58.1754557,23.8987094 L60.0000747,23.8987094 C55.38684,14.7839697 46.0134046,8.52865757 35.1678193,8.52865757 C24.3234794,8.52865757 14.9487986,14.7839697 10.3355638,23.8987094 L12.1614283,23.8987094 C16.6389064,15.7224549 25.268794,10.164411 35.1678193,10.164411" id="Fill-6" fill="#E94242"></path>
                        <path d="M35.1678193,63.1576711 C25.4120235,63.1576711 16.897965,57.7529006 12.368177,49.768866 L10.4987209,49.768866 C15.1717384,58.6989239 24.4604815,64.7971936 35.1678193,64.7971936 C45.877648,64.7971936 55.1651457,58.6989239 59.8369177,49.768866 L57.9674616,49.768866 C53.4376736,57.7529006 44.9236151,63.1576711 35.1678193,63.1576711" id="Fill-8" fill="#E94242"></path>
                        <path d="M60.3388436,36.6604757 C60.3388436,37.4645327 59.6949336,38.110291 58.9028123,38.110291 C58.1082001,38.110291 57.4642902,37.4645327 57.4642902,36.6604757 C57.4642902,35.8601878 58.1082001,35.2119168 58.9028123,35.2119168 C59.6949336,35.2119168 60.3388436,35.8601878 60.3388436,36.6604757" id="Fill-10" fill="#E94242"></path>
                        <path d="M12.8714729,36.6604757 C12.8714729,37.4645327 12.227563,38.110291 11.4341962,38.110291 C10.6408294,38.110291 9.99691953,37.4645327 9.99691953,36.6604757 C9.99691953,35.8601878 10.6408294,35.2119168 11.4341962,35.2119168 C12.227563,35.2119168 12.8714729,35.8601878 12.8714729,36.6604757" id="Fill-12" fill="#E94242"></path>
                        <text id="买入" font-family="MicrosoftYaHeiUI-Bold, Microsoft YaHei UI" font-size="17.7480008" font-weight="bold" line-spacing="27.1440012" letter-spacing="2.60304031" fill="#E94242">
                            <tspan x="17.7480008" y="40.924001">买</tspan>
                            <tspan x="38.0990419" y="40.924001" letter-spacing="2.76573034">入</tspan>
                        </text>
                    </g>
                </g>
            </g>
        </g>
    </g>
</svg>