<?xml version="1.0" encoding="UTF-8"?>
<svg width="16px" height="16px" viewBox="0 0 16 16" version="1.1" xmlns="http://www.w3.org/2000/svg" xmlns:xlink="http://www.w3.org/1999/xlink">
    <!-- Generator: Sketch 59 (86127) - https://sketch.com -->
    <title>打开主窗口-悬停</title>
    <desc>Created with Sketch.</desc>
    <g id="--" stroke="none" stroke-width="1" fill="none" fill-rule="evenodd">
        <g id="规范-6" transform="translate(-733.000000, -217.000000)" fill-rule="nonzero">
            <g id="打开主窗口_export" transform="translate(733.000000, 217.000000)">
                <g id="打开主窗口">
                    <path d="M15.99,0.01 L15.99,15.99 L0.01,15.99 L0.01,0.01 L15.99,0.01 L15.99,0.01 Z M16,0 L0,0 L0,16 L16,16 L16,0 L16,0 Z" id="Shape" fill="#000000"></path>
                    <g transform="translate(2.000000, 2.000000)" fill="#D2D2D3">
                        <path d="M2,2 L2,10 L10,10 L10,2 L2,2 Z M0,0 L12,0 L12,12 L0,12 L0,0 Z" id="Rectangle"></path>
                        <path d="M7,7 L7,6 L6,6 L6,7 L7,7 Z M6,8 L6,9 L9,9 L9,6 L8,6 L8,7 L7,7 L7,8 L6,8 Z M4,5 L5,5 L5,4 L6,4 L6,3 L3,3 L3,6 L4,6 L4,5 Z M6,6 L6,5 L5,5 L5,6 L6,6 Z" id="Shape"></path>
                    </g>
                </g>
            </g>
        </g>
    </g>
</svg>