<?xml version="1.0" encoding="UTF-8"?>
<svg width="16px" height="16px" viewBox="0 0 16 16" version="1.1" xmlns="http://www.w3.org/2000/svg" xmlns:xlink="http://www.w3.org/1999/xlink">
    <!-- Generator: Sketch 59 (86127) - https://sketch.com -->
    <title>皮肤_export</title>
    <desc>Created with Sketch.</desc>
    <g id="--" stroke="none" stroke-width="1" fill="none" fill-rule="evenodd">
        <g id="规范-6" transform="translate(-442.000000, -187.000000)" fill="#8E8E8E">
            <g id="皮肤_export_export" transform="translate(442.000000, 187.000000)">
                <g id="皮肤_export">
                    <g transform="translate(2.000000, 2.000000)" id="皮肤">
                        <g fill-rule="nonzero">
                            <polygon id="Path" points="11.1428571 1.84615385 11.1428571 0.923076923 10.2857143 0.923076923 10.2857143 0 8.57142857 0 8.57142857 0.923076923 7.71428571 0.923076923 7.71428571 1.84615385 4.28571429 1.84615385 4.28571429 0.923076923 3.42857143 0.923076923 3.42857143 0 1.71428571 0 1.71428571 0.923076923 0.857142857 0.923076923 0.857142857 1.84615385 0 1.84615385 0 4.61538462 1.71428571 4.61538462 1.71428571 11.0769231 2.57142857 11.0769231 2.57142857 12 9.42857143 12 9.42857143 11.0769231 10.2857143 11.0769231 10.2857143 4.61538462 12 4.61538462 12 1.84615385"></polygon>
                        </g>
                    </g>
                </g>
            </g>
        </g>
    </g>
</svg>