<?xml version="1.0" encoding="UTF-8"?>
<svg width="16px" height="16px" viewBox="0 0 16 16" version="1.1" xmlns="http://www.w3.org/2000/svg" xmlns:xlink="http://www.w3.org/1999/xlink">
    <!-- Generator: Sketch 52.3 (67297) - http://www.bohemiancoding.com/sketch -->
    <title>没有网络</title>
    <desc>Created with Sketch.</desc>
    <g id="--" stroke="none" stroke-width="1" fill="none" fill-rule="evenodd">
        <g id="规范-6" transform="translate(-618.000000, -220.000000)">
            <g id="没有网络_export" transform="translate(618.000000, 220.000000)">
                <g id="没有网络">
                    <g transform="translate(1.000000, 1.000000)">
                        <g id="网络" fill="#8E8E8E" fill-rule="nonzero">
                            <path d="M10,10 L8,10 L8,11 L10,11 L10,10 Z M3.208,4.671 C2.943,3.917 2.944,3.089 3.212,2.333 L2.452,1.574 C1.872,2.794 1.87,4.216 2.445,5.433 L3.208,4.671 Z M9.793,4.671 L10.555,5.433 C11.13,4.215 11.128,2.793 10.548,1.573 L9.788,2.333 C10.057,3.089 10.057,3.917 9.793,4.671 Z M11,8 L7,8 L7,4.908 C7.581,4.701 8,4.152 8,3.5 C8,2.672 7.328,2 6.5,2 C5.671,2 5,2.672 5,3.5 C5,4.152 5.419,4.701 6,4.908 L6,8 L2,8 C1.448,8 1,8.447 1,9 L1,12 C1,12.553 1.448,13 2,13 L11,13 C11.553,13 12,12.553 12,12 L12,9 C12,8.447 11.553,8 11,8 Z M11,12 L2,12 L2,9 L11,9 L11,12 Z M12.029,0.092 L11.284,0.836 C12.207,2.493 12.206,4.514 11.289,6.168 L12.018,6.896 C13.3,4.814 13.314,2.175 12.029,0.092 Z M1.715,0.837 L0.971,0.092 C-0.314,2.175 -0.3,4.814 0.982,6.896 L1.71,6.168 C0.793,4.514 0.793,2.494 1.715,0.837 Z" id="Shape"></path>
                        </g>
                        <g id="矩形_1" transform="translate(5.000000, 5.000000)" fill="#FF3232">
                            <polygon id="Path" points="6 3 7 3 7 2 8 2 8 0 6 0 6 1 5 1 5 2 3 2 3 1 2 1 2 0 0 0 0 2 1 2 1 3 2 3 2 5 1 5 1 6 0 6 0 8 2 8 2 7 3 7 3 6 5 6 5 7 6 7 6 8 8 8 8 6 7 6 7 5 6 5"></polygon>
                        </g>
                    </g>
                </g>
            </g>
        </g>
    </g>
</svg>