<?xml version="1.0" encoding="UTF-8"?>
<svg width="6px" height="10px" viewBox="0 0 6 10" version="1.1" xmlns="http://www.w3.org/2000/svg" xmlns:xlink="http://www.w3.org/1999/xlink">
    <!-- Generator: Sketch 59 (86127) - https://sketch.com -->
    <title>上一页_export copy</title>
    <desc>Created with Sketch.</desc>
    <g id="--" stroke="none" stroke-width="1" fill="none" fill-rule="evenodd">
        <g id="控件" transform="translate(-574.000000, -9503.000000)">
            <g id="上一页_export-copy" transform="translate(571.000000, 9502.000000)">
                <g id="上一页" transform="translate(6.000000, 6.000000) scale(-1, 1) translate(-6.000000, -6.000000) ">
                    <rect id="Rectangle" x="0" y="0" width="12" height="12"></rect>
                    <path d="M8.04020674,5.99522923 C7.99381419,5.99522923 7.94742165,5.97747327 7.91190972,5.94196934 L4.28026797,2.3103276 C4.20925212,2.23931974 4.20925212,2.12427774 4.28026797,2.05326189 C4.35127583,1.98224604 4.46631783,1.98224604 4.53733369,2.05326189 L8.16897544,5.68490364 C8.23999129,5.75591949 8.23999129,5.87096149 8.16897544,5.94197734 C8.13347151,5.97748126 8.08683912,5.99522923 8.04020674,5.99522923 Z M4.18179874,9.85399699 C4.13528628,9.85399699 4.08876582,9.83600919 4.05326189,9.80050526 C3.98224604,9.7294894 3.98224604,9.6144554 4.05326189,9.54343954 L7.91191772,5.68490363 C7.98293357,5.61388778 8.09796758,5.61388778 8.16898343,5.68490363 C8.23999928,5.75591948 8.23999928,5.87096148 8.16898343,5.94197733 L4.3103276,9.80050526 C4.27482367,9.83600919 4.22830321,9.85399699 4.18179874,9.85399699 Z" id="Shape" stroke="#333333" stroke-width="0.5" fill-rule="nonzero"></path>
                </g>
            </g>
        </g>
    </g>
</svg>