<?xml version="1.0" encoding="UTF-8"?>
<svg width="14px" height="12px" viewBox="0 0 14 12" version="1.1" xmlns="http://www.w3.org/2000/svg" xmlns:xlink="http://www.w3.org/1999/xlink">
    <!-- Generator: Sketch 59 (86127) - https://sketch.com -->
    <title>咨询_export</title>
    <desc>Created with Sketch.</desc>
    <g id="-" stroke="none" stroke-width="1" fill="none" fill-rule="evenodd">
        <g id="右键菜单" transform="translate(-330.000000, -1562.000000)" fill="#999999">
            <g id="Group-21-Copy-3" transform="translate(325.000000, 1402.000000)">
                <g id="咨询_export" transform="translate(4.000000, 158.000000)">
                    <g id="咨询">
                        <g id="圈子论坛">
                            <g transform="translate(1.000000, 2.000000)" fill-rule="nonzero">
                                <path d="M12.8333333,0 L1.16666667,0 C0.522666667,0 0,0.522666667 0,1.16666667 L0,8.16666667 C0,8.81183333 0.522666667,9.33333333 1.16666667,9.33333333 L2.33333333,9.33333333 L2.33333333,11.6666667 L5.83333333,9.33333333 L12.8333333,9.33333333 C13.4773333,9.33333333 14,8.81183333 14,8.16666667 L14,1.16666667 C14,0.522666667 13.4773333,0 12.8333333,0 Z M4.66666667,5.83333333 L2.33333333,5.83333333 L2.33333333,3.5 L4.66666667,3.5 L4.66666667,5.83333333 Z M8.16666667,5.83333333 L5.83333333,5.83333333 L5.83333333,3.5 L8.16666667,3.5 L8.16666667,5.83333333 Z M11.6666667,5.83333333 L9.33333333,5.83333333 L9.33333333,3.5 L11.6666667,3.5 L11.6666667,5.83333333 Z" id="Shape"></path>
                            </g>
                        </g>
                    </g>
                </g>
            </g>
        </g>
    </g>
</svg>