<?xml version="1.0" encoding="UTF-8"?>
<svg width="14px" height="14px" viewBox="0 0 14 14" version="1.1" xmlns="http://www.w3.org/2000/svg" xmlns:xlink="http://www.w3.org/1999/xlink">
    <!-- Generator: Sketch 59 (86127) - https://sketch.com -->
    <title>大疑问-1</title>
    <desc>Created with Sketch.</desc>
    <g id="-" stroke="none" stroke-width="1" fill="none" fill-rule="evenodd">
        <g id="表单" transform="translate(-548.000000, -133.000000)">
            <g id="大疑问-1_export" transform="translate(548.000000, 133.000000)">
                <g id="疑问">
                    <rect id="Rectangle" fill="#000000" fill-rule="evenodd" opacity="0" x="-1" y="-1" width="14" height="14"></rect>
                    <path d="M7,0 C3.11818181,0 0,3.11818181 0,7 C0,10.8818182 3.11818181,14 7,14 C10.8818182,14 14,10.8818182 14,7 C14,3.11818181 10.8818182,0 7,0 Z M7,12.9818182 C3.69090909,12.9818182 1.01818181,10.3090909 1.01818181,7 C1.01818181,3.69090909 3.69090909,1.01818181 7,1.01818181 C10.3090909,1.01818181 12.9818182,3.69090909 12.9818182,7 C12.9818182,10.3090909 10.3090909,12.9818182 7,12.9818182 Z M7.19090909,4.07272727 C6.55454544,4.07272727 6.04545454,4.26363636 5.72727273,4.51818181 C5.40909091,4.83636363 5.21818181,5.09090909 5.09090909,5.66363636 L5.02727273,5.85454546 L5.98181819,5.98181819 L6.04545454,5.85454546 C6.1090909,5.53636364 6.17272727,5.47272727 6.3,5.28181819 C6.49090909,5.02727273 6.87272727,4.9 7.25454546,4.9 C7.82727273,4.9 8.27272727,5.21818181 8.27272727,5.66363636 C8.27272727,5.85454544 8.20909091,5.98181817 8.08181819,6.17272727 C8.01818183,6.23636363 7.8909091,6.36363636 7.63636364,6.55454546 C7.1909091,6.87272727 7.12727273,6.93636364 6.93636364,7.12727273 C6.74545456,7.44545454 6.61818183,7.7 6.61818181,8.08181819 L6.61818181,8.71818181 L7.50909091,8.71818181 L7.50909091,8.52727273 L7.50909091,8.27272727 L7.50909091,8.14545454 C7.50909091,7.89090909 7.57272727,7.7 7.7,7.57272727 C7.76363636,7.44545454 7.89090909,7.38181819 8.33636364,7.06363636 C8.71818183,6.74545454 8.90909091,6.61818181 9.03636364,6.36363636 C9.16363637,6.1090909 9.22727273,5.85454544 9.22727273,5.6 C9.1,4.70909091 8.33636364,4.07272727 7.19090909,4.07272727 L7.19090909,4.07272727 Z M6.61818181,9.41818181 L7.63636364,9.41818181 L7.63636364,10.3090909 L6.61818181,10.3090909 L6.61818181,9.41818181 Z" id="Shape" fill="#999999" fill-rule="nonzero"></path>
                </g>
            </g>
        </g>
    </g>
</svg>