<?xml version="1.0" encoding="UTF-8"?>
<svg width="12px" height="13px" viewBox="0 0 12 13" version="1.1" xmlns="http://www.w3.org/2000/svg" xmlns:xlink="http://www.w3.org/1999/xlink">
    <!-- Generator: Sketch 59 (86127) - https://sketch.com -->
    <title>提示-警告_export</title>
    <desc>Created with Sketch.</desc>
    <g id="Symbols" stroke="none" stroke-width="1" fill="none" fill-rule="evenodd">
        <g id="提示-警告_export" transform="translate(0.000000, 0.507812)">
            <g id="提示-警告">
                <g>
                    <g id="Group">
                        <g id="gou">
                            <g>
                                <path d="M6,0.5 C2.96774893,0.5 0.5,2.96774893 0.5,6 C0.5,9.03220897 2.96777241,11.5 6,11.5 C9.03218549,11.5 11.5,9.03218549 11.5,6 C11.5,2.96777241 9.03220897,0.5 6,0.5 Z" id="Shape" stroke="#E94242" fill-rule="nonzero"></path>
                                <rect id="Rectangle" fill="#E04141" x="4" y="4" width="1" height="1"></rect>
                                <rect id="Rectangle-Copy-19" fill="#E04141" x="5" y="5" width="1" height="1"></rect>
                                <rect id="Rectangle-Copy-20" fill="#E04141" x="6" y="6" width="1" height="1"></rect>
                                <rect id="Rectangle-Copy-21" fill="#E04141" x="7" y="7" width="1" height="1"></rect>
                                <rect id="Rectangle-Copy-22" fill="#E04141" x="5" y="6" width="1" height="1"></rect>
                                <rect id="Rectangle-Copy-23" fill="#E04141" x="4" y="7" width="1" height="1"></rect>
                                <rect id="Rectangle-Copy-24" fill="#E04141" x="6" y="5" width="1" height="1"></rect>
                                <rect id="Rectangle-Copy-25" fill="#E04141" x="7" y="4" width="1" height="1"></rect>
                            </g>
                        </g>
                    </g>
                </g>
            </g>
        </g>
    </g>
</svg>