<?xml version="1.0" encoding="UTF-8"?>
<svg width="16px" height="16px" viewBox="0 0 16 16" version="1.1" xmlns="http://www.w3.org/2000/svg" xmlns:xlink="http://www.w3.org/1999/xlink">
    <!-- Generator: Sketch 59 (86127) - https://sketch.com -->
    <title>日期选择</title>
    <desc>Created with Sketch.</desc>
    <g id="-" stroke="none" stroke-width="1" fill="none" fill-rule="evenodd">
        <g id="表单" transform="translate(-365.000000, -131.000000)">
            <g id="日期选择_export" transform="translate(365.000000, 131.000000)">
                <g id="日历">
                    <g>
                        <rect id="Rectangle" fill="#000000" opacity="0" x="0" y="0" width="16" height="16"></rect>
                        <path d="M13,2 L11,2 L11,1.5 C11,1.22385763 10.7761424,1 10.5,1 C10.2238576,1 10,1.22385763 10,1.5 L10,2 L6,2 L6,1.5 C6.00894097,1.36484852 5.95914073,1.23241012 5.8633653,1.1366347 C5.76758988,1.04085927 5.63515148,0.99105903 5.5,1 C5.36484852,0.99105903 5.23241012,1.04085927 5.1366347,1.1366347 C5.04085927,1.23241012 4.99105903,1.36484852 5,1.5 L5,2 L3,2 C2.72969704,1.98211806 2.46482024,2.08171855 2.27326939,2.27326939 C2.08171855,2.46482024 1.98211806,2.72969704 2,3 L2,13 C1.98211806,13.270303 2.08171855,13.5351798 2.27326939,13.7267306 C2.46482024,13.9182815 2.72969704,14.0178819 3,14 L13,14 C13.270303,14.0178819 13.5351798,13.9182815 13.7267306,13.7267306 C13.9182815,13.5351798 14.0178819,13.270303 14,13 L14,3 C14,2.44771525 13.5522847,2 13,2 Z M13,13 L3,13 L3,5 L13,5 L13,13 Z M4.5,6 L6.5,6 C6.83333333,6 7,6.16666667 7,6.5 L7,8.5 C7,8.83333333 6.83333333,9 6.5,9 L4.5,9 C4.16666667,9 4,8.83333333 4,8.5 L4,6.5 C4,6.16666667 4.16666667,6 4.5,6 Z" id="Shape" fill="#999999" fill-rule="nonzero"></path>
                    </g>
                </g>
            </g>
        </g>
    </g>
</svg>