<?xml version="1.0" encoding="UTF-8"?>
<svg width="12px" height="12px" viewBox="0 0 12 12" version="1.1" xmlns="http://www.w3.org/2000/svg" xmlns:xlink="http://www.w3.org/1999/xlink">
    <!-- Generator: Sketch 59 (86127) - https://sketch.com -->
    <title>疑问-hover_export</title>
    <desc>Created with Sketch.</desc>
    <g id="-" stroke="none" stroke-width="1" fill="none" fill-rule="evenodd">
        <g id="表单" transform="translate(-235.000000, -2765.000000)">
            <g id="疑问-hover_export" transform="translate(233.000000, 2763.000000)">
                <g id="疑问-hover">
                    <rect id="Rectangle" fill="#000000" opacity="0" x="0" y="0" width="16" height="16"></rect>
                    <path d="M8,2 C4.67272727,2 2,4.67272727 2,8 C2,11.3272727 4.67272727,14 8,14 C11.3272727,14 14,11.3272727 14,8 C14,4.67272727 11.3272727,2 8,2 Z M8,13.1272727 C5.16363636,13.1272727 2.87272727,10.8363636 2.87272727,8 C2.87272727,5.16363636 5.16363636,2.87272727 8,2.87272727 C10.8363636,2.87272727 13.1272727,5.16363636 13.1272727,8 C13.1272727,10.8363636 10.8363636,13.1272727 8,13.1272727 Z M8.16363636,5.49090909 C7.61818181,5.49090909 7.18181818,5.65454545 6.90909091,5.87272727 C6.63636364,6.14545454 6.47272727,6.36363636 6.36363636,6.85454545 L6.30909091,7.01818182 L7.12727273,7.12727273 L7.18181818,7.01818182 C7.23636363,6.74545455 7.29090909,6.69090909 7.4,6.52727273 C7.56363636,6.30909091 7.89090909,6.2 8.21818182,6.2 C8.70909091,6.2 9.09090909,6.47272727 9.09090909,6.85454545 C9.09090909,7.01818181 9.03636364,7.12727272 8.92727273,7.29090909 C8.87272728,7.34545454 8.76363637,7.45454545 8.54545455,7.61818182 C8.16363637,7.89090909 8.10909091,7.94545455 7.94545455,8.10909091 C7.78181819,8.38181818 7.67272728,8.6 7.67272727,8.92727273 L7.67272727,9.47272727 L8.43636364,9.47272727 L8.43636364,9.30909091 L8.43636364,9.09090909 L8.43636364,8.98181818 C8.43636364,8.76363636 8.49090909,8.6 8.6,8.49090909 C8.65454545,8.38181818 8.76363636,8.32727273 9.14545455,8.05454545 C9.47272728,7.78181818 9.63636364,7.67272727 9.74545455,7.45454545 C9.85454546,7.23636363 9.90909091,7.01818181 9.90909091,6.8 C9.8,6.03636364 9.14545455,5.49090909 8.16363636,5.49090909 L8.16363636,5.49090909 Z M7.67272727,10.0727273 L8.54545455,10.0727273 L8.54545455,10.8363636 L7.67272727,10.8363636 L7.67272727,10.0727273 Z" id="Shape" fill="#007AD0" fill-rule="nonzero"></path>
                </g>
            </g>
        </g>
    </g>
</svg>