<?xml version="1.0" encoding="UTF-8"?>
<svg width="20px" height="20px" viewBox="0 0 20 20" version="1.1" xmlns="http://www.w3.org/2000/svg" xmlns:xlink="http://www.w3.org/1999/xlink">
    <!-- Generator: Sketch 59 (86127) - https://sketch.com -->
    <title>k线禁用</title>
    <desc>Created with Sketch.</desc>
    <g id="规范及控件" stroke="none" stroke-width="1" fill="none" fill-rule="evenodd">
        <g id="顶部栏" transform="translate(-886.000000, -251.000000)">
            <g id="k线禁用_export" transform="translate(886.000000, 251.000000)">
                <g id="k线默认">
                    <g id="Group">
                        <rect id="矩形" x="0" y="0" width="20" height="20"></rect>
                        <g id="股票" transform="translate(3.524594, 3.348480)" fill="#7ABBF5" fill-rule="nonzero">
                            <path d="M12.733679,3.37872162 C12.766386,3.40900319 12.784979,3.45155557 12.784979,3.49612828 L12.784979,11.9325819 C12.784979,12.109313 12.6417101,12.2525819 12.464979,12.2525819 L0.507439984,12.2525819 C0.330708864,12.2525819 0.187439984,12.109313 0.187439984,11.9325819 L0.187439984,7.95482466 C0.187439984,7.8664591 0.259074424,7.79482466 0.347439984,7.79482466 C0.376773878,7.79482466 0.405543247,7.80288885 0.430603356,7.81813576 L2.9764248,9.367048 L5.35774595,6.97066361 C5.41211318,6.91595248 5.49777481,6.9078161 5.56147015,6.9513133 L7.795506,8.47692464 L12.5075723,3.38742834 C12.5676057,3.32258643 12.668837,3.3186883 12.733679,3.37872162 Z M12.5627129,0.625283878 C12.5724675,0.672714338 12.5602172,0.722010754 12.529395,0.75935775 L7.2661093,7.13685241 C7.21301874,7.20118195 7.11941625,7.21393558 7.05105033,7.16615485 L4.81787239,5.60539398 L2.60046052,8.12163184 C2.55022122,8.1786416 2.46681402,8.19245144 2.40088107,8.15467656 L0.266076571,6.9315855 C0.217293313,6.90363617 0.18675933,6.85213322 0.185647075,6.7959217 L0.159208325,5.46136657 C0.157492133,5.3730183 0.227695403,5.29998073 0.31604367,5.29823258 C0.340140362,5.29775578 0.364033437,5.30272894 0.385938692,5.3127807 L2.27180939,6.17815782 L4.49421118,3.66046727 C4.54802498,3.59950327 4.63900766,3.58860041 4.7057021,3.63512335 L6.95831287,5.20644002 L9.19856816,2.39647288 L8.4803996,1.54266931 C8.42351832,1.47504536 8.43222704,1.37411398 8.49985096,1.31723275 C8.52021992,1.30009958 8.54454136,1.28831856 8.57061232,1.28295678 L12.3737617,0.50079519 C12.4603157,0.482994351 12.5449121,0.538729836 12.5627129,0.625283878 Z" id="Combined-Shape"></path>
                        </g>
                    </g>
                </g>
            </g>
        </g>
    </g>
</svg>