<?xml version="1.0" encoding="UTF-8"?>
<svg width="23px" height="18px" viewBox="0 0 23 18" version="1.1" xmlns="http://www.w3.org/2000/svg" xmlns:xlink="http://www.w3.org/1999/xlink">
    <!-- Generator: Sketch 59 (86127) - https://sketch.com -->
    <title>同花顺logo</title>
    <desc>Created with Sketch.</desc>
    <g id="规范及控件" stroke="none" stroke-width="1" fill="none" fill-rule="evenodd">
        <g id="顶部栏" transform="translate(-988.000000, -247.000000)" fill="#F2F2F2">
            <g id="同花顺logo" transform="translate(988.000000, 247.000000)">
                <path d="M10.5027645,1.30989047 C9.5055207,1.26117554 7.48221096,1.27200108 6.35814999,1.28012023 C4.83346216,1.28012023 4.56829906,1.87823138 4.67494074,2.69285335 C4.70664503,2.9228961 4.85363762,3.36944967 4.89687073,3.55077748 C3.76530303,4.05305479 2.66796217,4.62067873 1.61115405,5.25038743 C0.795489301,5.79166449 0.308396215,6.4141331 1.17882291,7.3694871 C1.28258239,7.4804489 1.7812043,8.21658569 1.87631715,8.30589641 C1.44398601,9.25042487 0.818546962,10.3248598 0.394862443,11.3911756 C-0.146992588,12.7822576 -0.210401155,13.5400455 0.838722415,13.9081139 C4.13308571,15.061034 8.90890372,16.4548225 10.3125388,17.0610528 C8.21429169,15.58066 4.16479,14.3763186 2.1962422,13.3505986 C1.31428667,12.8932194 1.18746954,12.5657468 1.4756903,11.8593803 C1.76391106,11.1530137 2.39511452,9.70780398 2.79862359,9.152995 C5.02368787,11.182784 7.63208575,13.718667 8.45639713,14.7037912 C7.2718098,12.525151 4.70952724,9.68885928 3.26842343,8.0677345 C1.94549014,6.58463537 1.88208157,6.36541816 2.86779657,5.72941762 C3.66578587,5.29425412 4.48950812,4.90209608 5.33496629,4.55484642 C6.58584439,7.76732574 7.81366483,11.1909031 8.1422365,12.714598 C8.07882793,10.0758724 6.81930321,6.07583494 6.35238557,3.98650551 C6.11892676,2.9039514 5.87682132,2.43574675 7.12481721,2.39515097 C8.20770387,2.32335496 9.29378629,2.3034823 10.3788296,2.33561049 C9.78509484,5.77813256 8.84261295,9.95679142 8.38722415,11.3614054 C9.63810225,9.09074814 10.6555215,4.73346784 11.4913617,2.54400216 C11.8199334,1.69960995 11.6729408,1.33154155 13.4512629,1.77809512 L16.6418667,2.5737724 C14.7770784,4.82277856 12.4021393,7.93782801 10.1251953,9.94867227 C12.2666756,8.51428807 15.4976303,5.27203851 17.1606641,3.62926265 C17.8696872,2.94184079 18.0253264,2.86335562 18.8352267,3.58054772 C19.8698701,4.52550335 21.0327921,5.33811902 22.2938759,5.99734977 C21.8384871,5.4398344 20.310917,3.88907564 19.1666806,2.47904891 C18.117557,1.18539675 17.5353511,1.53181407 17.1001378,2.11098051 C16.3911147,1.77268235 14.4629178,1.14480097 13.0650471,0.657651622 C10.6814614,-0.181327813 10.7909853,0.484442964 10.5027645,1.30989047 Z" id="_路径_"></path>
                <path d="M18.2270809,8.83364153 C17.9388602,8.37626242 17.6218173,7.86746199 17.2528948,7.28017639 C16.88109,7.86746199 16.5525183,8.37626242 16.2556509,8.83364153 C15.8636707,9.42092714 15.535099,9.88913179 15.2814648,10.2950896 L13.2783305,13.2721134 C13.0774876,13.7168196 13.1083795,14.2239491 13.3619145,14.6442507 C13.5916703,15.1445895 14.0733504,15.5033774 14.6444969,15.5996047 C15.535099,15.7971708 16.2239466,15.4994685 16.6995109,14.7146167 C16.7957611,15.1459093 16.7209398,15.5953621 16.4891097,15.9784987 C16.2664747,16.413755 15.9267037,16.786906 15.5033947,17.0610528 L18.9274574,17.0610528 C18.5049407,16.7912455 18.1706429,16.4164339 17.9619178,15.9784987 C17.7394707,15.5921574 17.6719754,15.1437111 17.7716921,14.7146167 C18.2472564,15.4994685 18.9245752,15.7971708 19.8151773,15.5996047 C20.3456515,15.4919126 20.8006362,15.1741229 21.063036,14.7280224 C21.3254358,14.281922 21.3696231,13.7510795 21.1842259,13.2721134 L19.1897383,10.2950896 C18.936104,9.88913179 18.6075323,9.42092714 18.2270809,8.83364153 Z" id="_路径_2"></path>
            </g>
        </g>
    </g>
</svg>