<?xml version="1.0" encoding="UTF-8"?>
<svg width="30px" height="30px" viewBox="0 0 30 30" version="1.1" xmlns="http://www.w3.org/2000/svg" xmlns:xlink="http://www.w3.org/1999/xlink">
    <!-- Generator: Sketch 59 (86127) - https://sketch.com -->
    <title>小屏默认</title>
    <desc>Created with Sketch.</desc>
    <g id="规范及控件" stroke="none" stroke-width="1" fill="none" fill-rule="evenodd">
        <g id="顶部栏" transform="translate(-1039.000000, -158.000000)">
            <g id="Stacked-Group" transform="translate(1009.000000, 158.000000)">
                <g id="小屏默认_export" transform="translate(30.000000, 0.000000)">
                    <g id="小屏默认">
                        <rect id="Rectangle-Copy-16" fill="#58595E" fill-rule="nonzero" opacity="0" x="0" y="0" width="30" height="30"></rect>
                        <g id="窗口" transform="translate(6.000000, 7.000000)">
                            <g id="Shape">
                                <path d="M15.99,0.01 L15.99,15.99 L0.01,15.99 L0.01,0.01 L15.99,0.01 L15.99,0.01 Z M16,0 L0,0 L0,16 L16,16 L16,0 L16,0 Z" fill-rule="nonzero"></path>
                                <g transform="translate(2.000000, 3.000000)" fill="#D3DDE6" fill-rule="nonzero">
                                    <path d="M3,0 L3,3 L0,3 L0,10 L9,10 L9,7 L12,7 L12,0 L3,0 Z M8,9 L1,9 L1,5 L8,5 L8,9 Z M11,6 L9,6 L9,3 L4,3 L4,2 L11,2 L11,6 Z"></path>
                                </g>
                            </g>
                        </g>
                    </g>
                </g>
            </g>
        </g>
    </g>
</svg>