<?xml version="1.0" encoding="UTF-8"?>
<svg width="12px" height="12px" viewBox="0 0 12 12" version="1.1" xmlns="http://www.w3.org/2000/svg" xmlns:xlink="http://www.w3.org/1999/xlink">
    <!-- Generator: Sketch 59 (86127) - https://sketch.com -->
    <title>小窗助手-悬停_export</title>
    <desc>Created with Sketch.</desc>
    <g id="规范及控件" stroke="none" stroke-width="1" fill="none" fill-rule="evenodd">
        <g id="顶部栏" transform="translate(-122.000000, -293.000000)" fill="#F6FAFF">
            <g id="小窗助手-悬停_export" transform="translate(120.000000, 291.000000)">
                <g id="小窗助手">
                    <g id="Shape">
                        <g transform="translate(2.000000, 2.000000)" fill-rule="nonzero">
                            <path d="M0,12 L5,12 L5,7 L0,7 L0,12 Z M0,0 L0,4 L2,4 L2,2 L9,2 L9,3 L10,3 L10,10 L8,10 L8,12 L12,12 L12,0 L0,0 Z M7,5 L8,5 L8,4 L7,4 L7,5 Z M8,4 L9,4 L9,3 L8,3 L8,4 Z M6,4 L5,4 L5,7 L8,7 L8,6 L7,6 L7,5 L6,5 L6,4 Z"></path>
                        </g>
                    </g>
                </g>
            </g>
        </g>
    </g>
</svg>