<?xml version="1.0" encoding="UTF-8"?>
<svg width="20px" height="20px" viewBox="0 0 20 20" version="1.1" xmlns="http://www.w3.org/2000/svg" xmlns:xlink="http://www.w3.org/1999/xlink">
    <!-- Generator: Sketch 59 (86127) - https://sketch.com -->
    <title>置顶-不可用</title>
    <desc>Created with Sketch.</desc>
    <g id="规范及控件" stroke="none" stroke-width="1" fill="none" fill-rule="evenodd">
        <g id="顶部栏" transform="translate(-889.000000, -294.000000)" fill="#7ABBF5">
            <g id="置顶-不可用_export" transform="translate(889.000000, 294.000000)">
                <g id="置顶">
                    <g id="Path">
                        <g transform="translate(3.490000, 3.490000)" fill-rule="nonzero">
                            <path d="M13.0147718,5.67299464 L7.52575445,0.149346296 C7.32662605,-0.0497820986 7.00628909,-0.0497820986 6.80716069,0.149346296 C6.6080323,0.34847469 6.6080323,0.677469409 6.80716069,0.876597804 L7.36125707,1.43935194 C7.35259932,1.44800969 7.35259932,1.44800969 7.34394157,1.4480097 L2.69472657,6.13185572 L1.51727174,4.9544009 C1.31814335,4.75527251 0.989148627,4.75527251 0.798677999,4.9544009 C0.599549605,5.1535293 0.599549605,5.48252402 0.798677999,5.68165241 L3.58647544,8.48676537 L0.149346296,11.94121 C-0.0497820986,12.1403384 -0.0497820986,12.4693331 0.149346296,12.6684615 C0.34847469,12.8675899 0.668811659,12.8675899 0.867940037,12.6684615 L4.29641143,9.21401688 L7.51709668,12.4520176 C7.71622508,12.651146 8.03656204,12.651146 8.23569044,12.4520176 C8.43481883,12.2528892 8.43481883,11.9238945 8.23569044,11.7247661 L7.05823562,10.5386536 L11.7074506,5.85480752 C11.7161084,5.84614977 11.7161084,5.84614977 11.7161084,5.83749202 L12.2875203,6.40024615 C12.4866487,6.59937455 12.8069856,6.59937455 13.006114,6.40024615 C13.2052424,6.20111776 13.2052424,5.87212304 13.0147718,5.67299464 Z"></path>
                        </g>
                    </g>
                </g>
            </g>
        </g>
    </g>
</svg>