<?xml version="1.0" encoding="UTF-8"?>
<svg width="12px" height="12px" viewBox="0 0 12 12" version="1.1" xmlns="http://www.w3.org/2000/svg" xmlns:xlink="http://www.w3.org/1999/xlink">
    <!-- Generator: Sketch 59 (86127) - https://sketch.com -->
    <title>问号_export-悬停</title>
    <desc>Created with Sketch.</desc>
    <g id="规范及控件" stroke="none" stroke-width="1" fill="none" fill-rule="evenodd">
        <g id="顶部栏" transform="translate(-250.000000, -293.000000)" fill="#F6FAFF">
            <g id="问号_export-悬停" transform="translate(248.000000, 291.000000)">
                <g id="问号">
                    <g transform="translate(2.000000, 2.000000)" id="_x3F_">
                        <g fill-rule="nonzero">
                            <path d="M6,0 C2.686,0 0,2.686 0,6 C0,9.313 2.686,12 6,12 C9.313,12 12,9.312 12,6 C12,2.686 9.313,0 6,0 Z M6.614,10.298 C6.418,10.461 6.188,10.541 5.926,10.541 C5.664,10.541 5.444,10.457 5.263,10.287 C5.075,10.133 4.981,9.924 4.981,9.662 C4.981,9.4 5.075,9.191 5.263,9.037 C5.435,8.875 5.656,8.795 5.926,8.795 C6.203,8.795 6.433,8.875 6.614,9.037 C6.794,9.208 6.883,9.415 6.883,9.662 C6.883,9.915 6.794,10.128 6.614,10.298 Z M8.368,5.82 C8.237,5.959 7.886,6.263 7.313,6.733 C7.11,6.888 6.945,7.077 6.823,7.301 C6.7,7.531 6.64,7.786 6.64,8.063 L6.64,8.226 L5.227,8.226 L5.227,8.063 C5.227,7.609 5.309,7.23 5.473,6.93 C5.628,6.622 6.106,6.132 6.909,5.46 L7.056,5.298 C7.277,5.044 7.389,4.77 7.389,4.478 C7.389,4.108 7.274,3.807 7.044,3.575 C6.815,3.359 6.488,3.25 6.063,3.25 C5.539,3.25 5.155,3.405 4.91,3.713 C4.706,3.976 4.602,4.358 4.602,4.859 L3.203,4.859 C3.203,3.996 3.469,3.325 4.001,2.847 C4.532,2.36 5.248,2.117 6.148,2.117 C6.956,2.117 7.604,2.322 8.086,2.73 C8.577,3.131 8.82200493,3.687 8.82200493,4.396 C8.823,4.967 8.672,5.442 8.368,5.82 Z" id="Shape"></path>
                        </g>
                    </g>
                </g>
            </g>
        </g>
    </g>
</svg>