<?xml version="1.0" encoding="UTF-8"?>
<svg width="16px" height="16px" viewBox="0 0 16 16" version="1.1" xmlns="http://www.w3.org/2000/svg" xmlns:xlink="http://www.w3.org/1999/xlink">
    <!-- Generator: Sketch 52.3 (67297) - http://www.bohemiancoding.com/sketch -->
    <title>锁定-pressed</title>
    <desc>Created with Sketch.</desc>
    <g id="--" stroke="none" stroke-width="1" fill="none" fill-rule="evenodd">
        <g id="Artboard" transform="translate(-715.000000, -349.000000)" fill="#616266" fill-rule="nonzero">
            <g id="锁定-pressed" transform="translate(715.000000, 349.000000)">
                <g id="Fill-1">
                    <g>
                        <path d="M11.594,7.208 L5.6,7.208 L5.6,5.646 C5.6,5.07 5.803,4.58 6.211,4.172 C6.619,3.765 7.11,3.562 7.685,3.562 C8.26,3.562 8.75,3.765 9.158,4.172 C9.328,4.342 9.454,4.529 9.553,4.729 L11.207,4.729 C11.05,4.115 10.742,3.56 10.258,3.075 C9.544,2.358 8.685,2 7.688,2 C6.691,2 5.835,2.361 5.117,3.075 C4.4,3.789 4.042,4.647 4.042,5.646 L4.042,7.208 L3.782,7.208 C3.566,7.208 3.38,7.285 3.228,7.437 C3.075,7.588 3,7.772 3,7.989 L3,12.679 C3,12.895 3.077,13.08 3.228,13.231 C3.38,13.385 3.564,13.46 3.782,13.46 L11.594,13.46 C11.81,13.46 11.995,13.383 12.147,13.231 C12.3,13.08 12.375,12.895 12.375,12.679 L12.375,7.989 C12.375,7.772 12.299,7.588 12.147,7.437 C11.995,7.283 11.811,7.208 11.594,7.208"></path>
                    </g>
                </g>
            </g>
        </g>
    </g>
</svg>