<?xml version="1.0" encoding="UTF-8"?>
<svg width="88px" height="88px" viewBox="0 0 88 88" version="1.1" xmlns="http://www.w3.org/2000/svg" xmlns:xlink="http://www.w3.org/1999/xlink">
    <!-- Generator: Sketch 59 (86127) - https://sketch.com -->
    <title>Trade-买入_export</title>
    <desc>Created with Sketch.</desc>
    <defs>
        <polygon id="path-1" points="0 0.790053746 69.2801629 0.790053746 69.2801629 70.8064209 0 70.8064209"></polygon>
    </defs>
    <g id="--" stroke="none" stroke-width="1" fill="none" fill-rule="evenodd" opacity="0.729399182">
        <g id="弹窗" transform="translate(-102.000000, -426.000000)">
            <g id="Trade-买入_export_export" transform="translate(102.000000, 426.000000)">
                <g id="Trade-买入_export">
                    <g id="Trade-买入">
                        <g id="Group-22-Copy-4">
                            <g id="Group-22-Copy-2" transform="translate(44.009370, 43.939348) rotate(-15.000000) translate(-44.009370, -43.939348) translate(9.009370, 7.939348)">
                                <path d="M34.7726752,55.3536996 C29.277813,55.3536996 24.345737,52.9810539 20.8865107,49.2096653 L13.4015773,49.2096653 C17.7770245,56.5213891 25.706522,61.436865 34.7726752,61.436865 C43.8412914,61.436865 51.7695574,56.5213891 56.1437731,49.2096653 L48.6600713,49.2096653 C45.2008449,52.9810539 40.2675375,55.3536996 34.7726752,55.3536996 M34.7726752,17.1441663 C40.4325557,17.1441663 45.4964001,19.6633943 48.9654782,23.6298119 L56.3494302,23.6298119 C52.0207793,16.1292702 43.9816801,11.0634853 34.7726752,11.0634853 C25.5649019,11.0634853 17.5258027,16.1292702 13.1959202,23.6298119 L20.5798722,23.6298119 C24.0489504,19.6633943 29.1140262,17.1441663 34.7726752,17.1441663" id="Fill-1" fill="#E94242"></path>
                                <g id="Group-5" transform="translate(0.000000, 0.452418)">
                                    <mask id="mask-2" fill="white">
                                        <use xlink:href="#path-1"></use>
                                    </mask>
                                    <g id="Clip-4"></g>
                                    <path d="M63.6901573,43.8135733 L63.6778425,43.8409022 C63.1101304,45.9377744 62.3084371,47.970051 61.2998553,49.8930121 L61.2912349,49.9215832 L61.0535594,50.3687834 L60.8084949,50.812257 L60.7912542,50.834617 C59.7137095,52.7178269 58.4342022,54.4879945 56.988445,56.1028842 L56.9712043,56.1289709 L56.628853,56.4991533 L56.2803442,56.8680935 L56.2581776,56.8842424 C54.7533095,58.4469587 53.0834231,59.8444595 51.2817683,61.0419623 L51.2608332,61.0630801 L50.8372042,61.3376114 L50.4111122,61.6084159 L50.3827882,61.6208382 C48.5429576,62.7537454 46.5812105,63.6854126 44.5443431,64.3959641 L44.5184821,64.4071441 L44.0418994,64.568633 L43.5591594,64.7239109 L43.5320669,64.7251531 C41.4705699,65.359929 39.3401101,65.7673781 37.1887152,65.9400471 L37.1616226,65.9462582 L36.656716,65.9810405 L36.1555037,66.0083694 L36.1259482,66.0046427 C33.9671644,66.1002938 31.8009917,65.9661338 29.6754578,65.6009203 L29.6459023,65.6009203 L29.1508475,65.510238 L28.6582556,65.4121024 L28.6299316,65.4034068 C26.517944,64.958691 24.456447,64.284164 22.4910055,63.3934902 L22.4626815,63.3847947 L22.004571,63.1698901 L21.5538495,62.9500166 L21.5292199,62.93511 C19.5957968,61.9699028 17.7633551,60.7997289 16.0786909,59.4382526 L16.0528299,59.4245881 L15.6612193,59.1040946 L15.2769977,58.77739 L15.2585255,58.7537878 C13.6181946,57.3401382 12.1367246,55.7376707 10.8350506,54.0022853 L10.8116525,53.9848942 L10.5136344,53.571234 L10.2205422,53.1613004 L10.2082274,53.1339715 C8.97182187,51.3501395 7.91890676,49.4371163 7.0938154,47.4296841 L7.07657468,47.4035974 L6.88569533,46.932795 L6.70836226,46.459508 L6.70220487,46.4296947 C5.93991896,44.3986603 5.40545679,42.2781859 5.10004984,40.1241714 L5.09266096,40.0968425 L5.0236981,39.5949845 L4.96581855,39.0869153 L4.96828151,39.0583442 C4.73676334,36.8968764 4.73676334,34.6993841 4.96828151,32.5366741 L4.96581855,32.5068608 L5.0236981,32.0025183 L5.09266096,31.5019024 L5.10004984,31.4720891 C5.40545679,29.3180746 5.93991896,27.1976002 6.70220487,25.1653236 L6.70836226,25.1367525 L6.88569533,24.6634655 L7.07657468,24.1939053 L7.0938154,24.1665764 C7.91890676,22.157902 8.97182187,20.2448788 10.2082274,18.462289 L10.2205422,18.4349601 L10.5136344,18.0225421 L10.8116525,17.6138508 L10.8350506,17.5939752 C12.1367246,15.8610743 13.6181946,14.2586068 15.2585255,12.8412305 L15.2757662,12.8213549 L15.6612193,12.4909236 L16.0528299,12.1704301 L16.0774595,12.1592501 C17.7621236,10.7952894 19.5945654,9.62635769 21.5267569,8.66115052 L21.5538495,8.6437594 L22.004571,8.42512818 L22.46145,8.21022362 L22.4885425,8.20525473 C24.456447,7.31458093 26.5167125,6.63756947 28.6299316,6.1940959 L28.6582556,6.1829159 L29.1508475,6.08726473 L29.6459023,5.99409802 L29.6754578,5.99409802 C31.8009917,5.63012672 33.9671644,5.4934822 36.1259482,5.58913336 L36.1555037,5.58789114 L36.656716,5.61522004 L37.1616226,5.64751784 L37.1887152,5.65497118 C39.3401101,5.82764015 41.4705699,6.2375737 43.5320669,6.86986514 L43.5591594,6.87234959 L44.0418994,7.02762745 L44.5184821,7.18911642 L44.5443431,7.20153865 C46.5812105,7.91333235 48.5429576,8.84127284 50.3827882,9.97790677 L50.4111122,9.98908677 L50.8372042,10.2561647 L51.2608332,10.5331804 L51.2805368,10.5555404 C53.0834231,11.7505588 54.7533095,13.1480595 56.2581776,14.7107759 L56.2803442,14.7269248 L56.628853,15.095865 L56.9712043,15.4660474 L56.988445,15.4921341 C58.4342022,17.1070238 59.7137095,18.8771914 60.7887913,20.7604013 L60.8084949,20.7852457 L61.0535594,21.2262349 L61.2912349,21.6734351 L61.2998553,21.700764 C62.3084371,23.6249672 63.1101304,25.6584861 63.6778425,27.754116 L63.6901573,27.7826872 L63.8206942,28.272123 L63.9413792,28.7665277 L63.9413792,28.7950988 C64.4425914,30.9106044 64.7073595,33.0820099 64.7455354,35.2583844 L64.7479983,35.2906822 L64.7553872,35.7975091 L64.7479983,36.3055783 L64.7455354,36.3341494 C64.7073595,38.5117661 64.4438229,40.6844139 63.9413792,42.7999195 L63.9413792,42.8297328 L63.8206942,43.3216531 L63.6901573,43.8135733 Z M66.1789777,36.6360096 L66.1912925,35.7975091 L66.1789777,34.9577665 C67.1789392,34.0733038 68.1419563,33.1130655 69.065566,32.0671139 C69.4042229,31.6807825 69.33526,31.1031489 68.9067051,30.8124688 C67.761429,30.0311106 66.5939863,29.3342235 65.4056085,28.729261 L65.2098032,27.9143628 L64.9930628,27.1044335 C65.7430339,25.9988551 66.4400514,24.8212278 67.0718004,23.5777628 C67.309476,23.1181403 67.0939671,22.5740467 66.6112271,22.4001355 C65.3046271,21.9343019 63.9980272,21.5566661 62.7012792,21.2697127 L62.3084371,20.5293478 L61.8971229,19.8014052 C62.3527704,18.5380646 62.7345291,17.2213083 63.0387046,15.8623165 C63.1556951,15.3542474 62.8121123,14.8884138 62.3022797,14.8399671 C60.9254855,14.7120181 59.563469,14.6759937 58.2359339,14.7231981 L57.6743792,14.1045711 L57.0968152,13.5008508 C57.2261206,12.1667035 57.2741483,10.7952894 57.234741,9.40027313 C57.2236577,8.88226619 56.7790935,8.51084156 56.2704924,8.59407049 C54.90355,8.8176706 53.5797094,9.11828854 52.302665,9.49468207 L51.606879,9.03630183 L50.9000096,8.59655493 C50.6992784,7.26986091 50.4086493,5.93074465 50.0256591,4.59038617 C49.8877334,4.08604369 49.3606601,3.84381023 48.8926978,4.05001923 C47.6230423,4.60653507 46.4124978,5.23509984 45.2721476,5.91956465 C45.0110739,5.82515571 44.7475373,5.73571566 44.4827692,5.64876006 C44.220464,5.56304668 43.9556959,5.48105997 43.6896963,5.40155771 C43.1650859,4.17051484 42.5518091,2.94568309 41.8486342,1.74072691 C41.588792,1.29725334 41.0223113,1.18545329 40.618386,1.50843123 C39.527295,2.36432279 38.5125558,3.27984105 37.5766313,4.23386821 C37.3007798,4.20529708 37.0236969,4.18790596 36.746614,4.17051484 C36.4695311,4.14939706 36.1924481,4.1407015 35.9141337,4.13200594 C35.1038201,3.06866316 34.2097659,2.03016484 33.2356655,1.04259766 C32.8748419,0.673657463 32.2960465,0.714650818 31.9857136,1.12334214 C31.1359927,2.22395161 30.3761697,3.36306998 29.7025504,4.51833725 L28.8823849,4.66491955 C28.6114594,4.71585068 28.3368394,4.76926627 28.0683769,4.83261963 C27.0228506,4.00654143 25.8997412,3.22394102 24.7113633,2.51338953 C24.2704936,2.24631162 23.7200222,2.42767616 23.5180595,2.90468974 C22.9700511,4.18542152 22.5168666,5.47981775 22.1523486,6.76924509 L21.3949886,7.11830972 L20.646249,7.48476546 C19.4283156,6.94812518 18.1512712,6.47856494 16.8200417,6.08850696 C16.3299128,5.94565133 15.8410154,6.25248038 15.7646636,6.76800287 C15.5540806,8.14811248 15.4309327,9.51083097 15.3939883,10.8511894 L14.74623,11.3791342 L14.1132494,11.9207433 C12.7992606,11.7058388 11.4495589,11.5754054 10.0653758,11.5282009 C9.55061731,11.5033565 9.1577753,11.93565 9.20826596,12.4474458 C9.34003428,13.836251 9.55923766,15.1915162 9.85232982,16.4983346 C9.68238563,16.7182081 9.51613587,16.9442926 9.35481204,17.1703772 L8.87453498,17.8560842 C7.55069435,17.9753376 6.20591857,18.1827888 4.85252243,18.4821645 C4.35500465,18.596449 4.07053285,19.103276 4.2490974,19.5902273 C4.72198558,20.9044991 5.26014219,22.1591442 5.86972462,23.3541626 L5.55446583,24.1280675 L5.25767923,24.9131523 C4.00526443,25.362837 2.75777554,25.9044462 1.52383292,26.5354954 C1.06325953,26.7677911 0.921639373,27.330518 1.21226857,27.7603272 C1.99548963,28.9118678 2.8328958,29.9926017 3.71340375,30.9950755 L3.6013391,31.8248804 L3.50897812,32.6584119 C2.4031094,33.4074723 1.33418506,34.247215 0.293584749,35.1677021 C-0.0980257804,35.506829 -0.0980257804,36.0894315 0.293584749,36.4298006 C1.33418506,37.3490455 2.40557236,38.1875459 3.50897812,38.9378486 L3.6013391,39.7713801 L3.71340375,40.6024272 C2.8328958,41.6049011 1.99548963,42.685635 1.21226857,43.8359333 C0.921639373,44.2620158 1.06325953,44.8284694 1.52383292,45.0620073 C2.75777554,45.6905721 4.00526443,46.2334235 5.25767923,46.6855926 L5.55446583,47.4657086 L5.8709561,48.2420979 C5.26014219,49.4371163 4.72198558,50.6917614 4.2490974,52.0047909 C4.07053285,52.4917423 4.35500465,52.9998115 4.85252243,53.114096 C6.20591857,53.4134717 7.55192583,53.6196807 8.87453498,53.7414185 L9.35481204,54.4258833 C9.51613587,54.6532101 9.68238563,54.8768102 9.85232982,55.0966837 C9.55923766,56.4047443 9.34003428,57.7600095 9.20826596,59.1475724 C9.1577753,59.6606105 9.55061731,60.0916618 10.0653758,60.0680596 C11.4495589,60.0208551 12.7992606,59.8891795 14.1132494,59.6717905 L14.74623,60.2183686 L15.3939883,60.7450711 C15.4321641,62.0854295 15.5540806,63.4493902 15.7646636,64.8294999 C15.8410154,65.3450223 16.3299128,65.6506092 16.8200417,65.5077535 C18.1512712,65.1164533 19.4295471,64.6468931 20.6474805,64.1102528 L21.3949886,64.4779508 L22.1523486,64.8270154 C22.5168666,66.1164427 22.9700511,67.410839 23.519291,68.6890863 C23.7200222,69.1685843 24.2704936,69.3462222 24.7113633,69.0816287 C25.9009727,68.3735617 27.0228506,67.5922035 28.0683769,66.7636409 C28.3368394,66.825752 28.6114594,66.8804098 28.8823849,66.9300987 L29.7025504,67.076681 C30.3761697,68.2319483 31.1384556,69.3723089 31.9857136,70.4741606 C32.2960465,70.8816097 32.8748419,70.922603 33.2356655,70.5511784 C34.2097659,69.5648534 35.1038201,68.5275973 35.9141337,67.466739 C36.1924481,67.455559 36.4695311,67.4456212 36.746614,67.4257457 C37.0236969,67.4095968 37.3007798,67.3897212 37.5766313,67.3611501 C38.5125558,68.3176617 39.527295,69.2306955 40.618386,70.0890715 C41.0223113,70.409565 41.588792,70.2965227 41.8486342,69.8530491 C42.5518091,68.6518196 43.1650859,67.4245034 43.6896963,66.1909761 C43.9556959,66.1164427 44.220464,66.034456 44.4827692,65.9462582 C44.7475373,65.8617871 45.0110739,65.7711048 45.2721476,65.6754536 C46.4124978,66.3611607 47.6230423,66.9909676 48.8926978,67.5462413 C49.3606601,67.7524503 49.8877334,67.5077324 50.0256591,67.0083588 C50.4086493,65.6667581 50.6992784,64.3276418 50.9000096,62.9984633 L51.606879,62.5587164 L52.302665,62.1003362 C53.5797094,62.477972 54.90355,62.7773477 56.2704924,63.00219 C56.7790935,63.0866612 57.2236577,62.7139943 57.234741,62.1959874 C57.2753798,60.7997289 57.2261206,59.4283148 57.0968152,58.0966519 L57.6743792,57.4904471 L58.2359339,56.8730624 C59.563469,56.9190246 60.9254855,56.8830001 62.3022797,56.7562934 C62.8121123,56.7103312 63.1556951,56.2420131 63.0387046,55.733944 C62.7369921,54.3737099 62.3552334,53.0557115 61.8971229,51.7948553 L62.3084371,51.0669127 L62.7012792,50.3253056 C63.9980272,50.0395944 65.3058586,49.6632008 66.6112271,49.1911561 C67.0939671,49.0209716 67.309476,48.4793624 67.0718004,48.0184977 C66.4400514,46.7750326 65.7442654,45.5974054 64.9930628,44.491827 L65.2098032,43.6818977 L65.4056085,42.8669995 C66.5939863,42.2595525 67.761429,41.5651499 68.9067051,40.7813073 C69.33526,40.4931116 69.4042229,39.9142357 69.065566,39.5303889 C68.1419563,38.483195 67.1789392,37.5179878 66.1789777,36.6360096 L66.1789777,36.6360096 Z" id="Fill-3" fill="#E94242" mask="url(#mask-2)"></path>
                                </g>
                                <path d="M34.7726752,10.0502041 C44.561707,10.0502041 53.0946295,15.5457981 57.5217989,23.6301846 L59.3259166,23.6301846 C54.7645159,14.6178576 45.4964001,8.43282996 34.7726752,8.43282996 C24.0501819,8.43282996 14.7808345,14.6178576 10.2194339,23.6301846 L12.0247831,23.6301846 C16.4519524,15.5457981 24.984875,10.0502041 34.7726752,10.0502041" id="Fill-6" fill="#E94242"></path>
                                <path d="M34.7726752,62.4480344 C25.1264951,62.4480344 16.7081002,57.1039916 12.2292087,49.2096653 L10.3807577,49.2096653 C15.0012694,58.0393854 24.1856447,64.0691352 34.7726752,64.0691352 C45.3621688,64.0691352 54.5453126,58.0393854 59.1645927,49.2096653 L57.3161418,49.2096653 C52.8372503,57.1039916 44.4188554,62.4480344 34.7726752,62.4480344" id="Fill-8" fill="#E94242"></path>
                                <path d="M59.660879,36.2485603 C59.660879,37.0435829 59.0242041,37.6820855 58.240983,37.6820855 C57.455299,37.6820855 56.818624,37.0435829 56.818624,36.2485603 C56.818624,35.4572643 57.455299,34.8162773 58.240983,34.8162773 C59.0242041,34.8162773 59.660879,35.4572643 59.660879,36.2485603" id="Fill-10" fill="#E94242"></path>
                                <path d="M12.7268496,36.2485603 C12.7268496,37.0435829 12.0901746,37.6820855 11.3057221,37.6820855 C10.5212696,37.6820855 9.88459459,37.0435829 9.88459459,36.2485603 C9.88459459,35.4572643 10.5212696,34.8162773 11.3057221,34.8162773 C12.0901746,34.8162773 12.7268496,35.4572643 12.7268496,36.2485603" id="Fill-12" fill="#E94242"></path>
                                <text id="买入" font-family="MicrosoftYaHeiUI-Bold, Microsoft YaHei UI" font-size="17.5485851" font-weight="bold" line-spacing="26.8390124" letter-spacing="2.57379258" fill="#E94242">
                                    <tspan x="17.5485851" y="40.6776639">买</tspan>
                                    <tspan x="37.6709627" y="40.6776639" letter-spacing="2.73465476">入</tspan>
                                </text>
                            </g>
                        </g>
                    </g>
                </g>
            </g>
        </g>
    </g>
</svg>