<?xml version="1.0" encoding="UTF-8"?>
<svg width="88px" height="88px" viewBox="0 0 88 88" version="1.1" xmlns="http://www.w3.org/2000/svg" xmlns:xlink="http://www.w3.org/1999/xlink">
    <!-- Generator: Sketch 59 (86127) - https://sketch.com -->
    <title>撤出</title>
    <desc>Created with Sketch.</desc>
    <defs>
        <rect id="path-1" x="907" y="2285" width="376" height="379"></rect>
        <filter x="-6.6%" y="-5.3%" width="113.3%" height="113.2%" filterUnits="objectBoundingBox" id="filter-2">
            <feOffset dx="0" dy="5" in="SourceAlpha" result="shadowOffsetOuter1"></feOffset>
            <feGaussianBlur stdDeviation="7.5" in="shadowOffsetOuter1" result="shadowBlurOuter1"></feGaussianBlur>
            <feComposite in="shadowBlurOuter1" in2="SourceAlpha" operator="out" result="shadowBlurOuter1"></feComposite>
            <feColorMatrix values="0 0 0 0 0   0 0 0 0 0   0 0 0 0 0  0 0 0 0.8 0" type="matrix" in="shadowBlurOuter1"></feColorMatrix>
        </filter>
    </defs>
    <g id="-" stroke="none" stroke-width="1" fill="none" fill-rule="evenodd">
        <g id="弹窗" transform="translate(-915.000000, -2386.000000)">
            <rect fill="#1C1D21" x="0" y="0" width="1440" height="4798"></rect>
            <g id="Rectangle-Copy-16">
                <use fill="black" fill-opacity="1" filter="url(#filter-2)" xlink:href="#path-1"></use>
                <rect stroke="#5C5C5C" stroke-width="1" stroke-linejoin="square" fill="#EDEDED" fill-rule="evenodd" x="907.5" y="2285.5" width="375" height="378"></rect>
            </g>
            <g id="Trade-蓝" transform="translate(923.000000, 2380.000000)">
                <g id="Trade-买入_export">
                    <path d="M34.7820451,53.5283567 C29.2871829,53.5283567 24.3551069,51.1891285 20.8958805,47.4708581 L13.4109472,47.4708581 C17.7863944,54.6795998 25.7158919,59.5258437 34.7820451,59.5258437 C43.8506613,59.5258437 51.7789273,54.6795998 56.153143,47.4708581 L48.6694412,47.4708581 C45.2102148,51.1891285 40.2769073,53.5283567 34.7820451,53.5283567 M34.7820451,15.8569858 C40.4419256,15.8569858 45.5057699,18.3407317 48.9748481,22.2512843 L56.3588001,22.2512843 C52.0301491,14.8563841 43.99105,9.86194828 34.7820451,9.86194828 C25.5742717,9.86194828 17.5351726,14.8563841 13.2052901,22.2512843 L20.5892421,22.2512843 C24.0583203,18.3407317 29.1233961,15.8569858 34.7820451,15.8569858" id="Fill-1" fill="#3493D8"></path>
                    <path d="M63.6995272,42.5968129 L63.6872124,42.6237569 C63.1195003,44.6910957 62.317807,46.6947487 61.3092252,48.5906257 L61.3006048,48.6187945 L61.0629293,49.0596961 L60.8178648,49.4969236 L60.8006241,49.5189686 C59.7230794,51.3756544 58.443572,53.1208901 56.9978149,54.7130349 L56.9805742,54.7387542 L56.6382229,55.1037227 L56.2897141,55.4674666 L56.2675475,55.483388 C54.7626793,57.0240943 53.0927929,58.4019119 51.2911382,59.5825485 L51.2702031,59.6033689 L50.8465741,59.8740335 L50.4204821,60.141024 L50.3921581,60.1532712 C48.5523275,61.270222 46.5905804,62.1887671 44.553713,62.8893108 L44.5278519,62.9003334 L44.0512693,63.0595479 L43.5685293,63.2126387 L43.5414367,63.2138634 C41.4799398,63.8396988 39.34948,64.2414092 37.1980851,64.4116462 L37.1709925,64.4177698 L36.6660858,64.4520622 L36.1648736,64.4790062 L36.1353181,64.475332 C33.9765343,64.569636 31.8103616,64.4373655 29.6848277,64.0772958 L29.6552722,64.0772958 L29.1602174,63.9878907 L28.6676255,63.8911373 L28.6393015,63.8825642 C26.5273139,63.4441121 24.4658169,62.7790854 22.5003754,61.9009563 L22.4720514,61.8923832 L22.0139409,61.6805055 L21.5632194,61.4637289 L21.5385898,61.4490321 C19.6051667,60.4974194 17.772725,59.3437268 16.0880608,58.0014263 L16.0621998,57.9879543 L15.6705892,57.6719748 L15.2863676,57.3498716 L15.2678954,57.3266018 C13.6275645,55.9328628 12.1460945,54.3529652 10.8444205,52.6420219 L10.8210224,52.6248757 L10.5230043,52.2170417 L10.2299121,51.8128819 L10.2175973,51.7859379 C8.98119175,50.0272303 7.92827665,48.141151 7.10318528,46.1619926 L7.08594456,46.1362733 L6.89506522,45.6721018 L6.71773215,45.2054809 L6.71157475,45.1760875 C5.94928884,43.1736592 5.41482667,41.0830506 5.10941972,38.9593744 L5.10203084,38.9324304 L5.03306798,38.4376408 L4.97518844,37.9367275 L4.9776514,37.9085588 C4.74613322,35.7775342 4.74613322,33.6109926 4.9776514,31.4787433 L4.97518844,31.4493498 L5.03306798,30.9521107 L5.10203084,30.4585459 L5.10941972,30.4291524 C5.41482667,28.3054762 5.94928884,26.2148676 6.71157475,24.2112146 L6.71773215,24.1830459 L6.89506522,23.716425 L7.08594456,23.2534782 L7.10318528,23.2265343 C7.92827665,21.2461511 8.98119175,19.3600718 10.2175973,17.6025889 L10.2299121,17.5756449 L10.5230043,17.1690356 L10.8210224,16.7661005 L10.8444205,16.7465049 C12.1460945,15.038011 13.6275645,13.4581135 15.2678954,12.0607003 L15.2851361,12.0411046 L15.6705892,11.7153273 L16.0621998,11.3993478 L16.0868293,11.3883253 C17.7714935,10.0435753 19.6039352,8.89110736 21.5361268,7.93949466 L21.5632194,7.92234848 L22.0139409,7.70679657 L22.4708199,7.49491884 L22.4979124,7.49001993 C24.4658169,6.61189084 26.5260824,5.94441474 28.6393015,5.50718729 L28.6676255,5.49616474 L29.1602174,5.40186078 L29.6552722,5.31000627 L29.6848277,5.31000627 C31.8103616,4.95116133 33.9765343,4.81644138 36.1353181,4.91074535 L36.1648736,4.90952062 L36.6660858,4.93646461 L37.1709925,4.9683075 L37.1980851,4.97565587 C39.34948,5.14589289 41.4799398,5.55005272 43.5414367,6.17343865 L43.5685293,6.1758881 L44.0512693,6.32897895 L44.5278519,6.48819343 L44.553713,6.5004407 C46.5905804,7.20220914 48.5523275,8.11708004 50.3921581,9.23770504 L50.4204821,9.24872758 L50.8465741,9.51204384 L51.2702031,9.78515791 L51.2899067,9.80720299 C53.0927929,10.9853901 54.7626793,12.3632078 56.2675475,13.903914 L56.2897141,13.9198355 L56.6382229,14.2835793 L56.9805742,14.6485479 L56.9978149,14.6742672 C58.443572,16.266412 59.7230794,18.0116476 60.7981611,19.8683334 L60.8178648,19.892828 L61.0629293,20.327606 L61.3006048,20.7685076 L61.3092252,20.7954516 C62.317807,22.6925534 63.1195003,24.6974311 63.6872124,26.7635452 L63.6995272,26.7917139 L63.830064,27.2742562 L63.950749,27.7616975 L63.950749,27.7898662 C64.4519613,29.8755759 64.7167294,32.0163983 64.7549053,34.1621196 L64.7573682,34.1939625 L64.7647571,34.693651 L64.7573682,35.1945643 L64.7549053,35.222733 C64.7167294,37.369679 64.4531927,39.5117262 63.950749,41.5974359 L63.950749,41.6268293 L63.830064,42.1118211 L63.6995272,42.5968129 Z M66.1883476,35.5203416 L66.2006624,34.693651 L66.1883476,33.8657357 C67.1883091,32.9937303 68.1513261,32.0470165 69.0749359,31.0157965 C69.4135928,30.6349065 69.3446299,30.0654086 68.916075,29.7788225 C67.7707989,29.0084694 66.6033562,28.3213976 65.4149784,27.7249557 L65.2191731,26.9215349 L65.0024327,26.1230131 C65.7524038,25.0330062 66.4494213,23.8719653 67.0811703,22.6460138 C67.3188459,22.1928649 67.103337,21.6564345 66.6205969,21.4849728 C65.313997,21.0257002 64.0073971,20.6533833 62.710649,20.3704714 L62.317807,19.6405343 L61.9064928,18.9228444 C62.3621403,17.6772972 62.743899,16.3790869 63.0480745,15.0392358 C63.165065,14.5383225 62.8214822,14.07905 62.3116496,14.0312856 C60.9348554,13.9051388 59.5728389,13.8696217 58.2453038,13.9161613 L57.6837491,13.3062474 L57.1061851,12.7110302 C57.2354905,11.3956736 57.2835182,10.0435753 57.2441109,8.66820709 C57.2330275,8.15749602 56.7884634,7.79130272 56.2798623,7.87335941 C54.9129199,8.09381023 53.5890792,8.39019411 52.3120348,8.76128632 L51.6162488,8.30936214 L50.9093795,7.87580887 C50.7086483,6.56780067 50.4180191,5.24754521 50.035029,3.92606502 C49.8971032,3.42882595 49.3700299,3.19000423 48.9020677,3.39330887 C47.6324122,3.94198647 46.4218677,4.56169822 45.2815175,5.23652267 C45.0204438,5.14344343 44.7569072,5.05526311 44.492139,4.96953223 C44.2298339,4.88502608 43.9650657,4.80419412 43.6990661,4.7258116 C43.1744558,3.51210737 42.5611789,2.30452677 41.8580041,1.1165418 C41.5981619,0.679314342 41.0316812,0.569088932 40.6277559,0.887517894 C39.5366649,1.73135464 38.5219257,2.63397827 37.5860011,3.57456844 C37.3101497,3.54639972 37.0330668,3.52925355 36.7559839,3.51210737 C36.4789009,3.49128702 36.201818,3.48271393 35.9235036,3.47414084 C35.11319,2.42577472 34.2191358,1.40190314 33.2450354,0.428245353 C32.8842118,0.0645015015 32.3054164,0.104917485 31.9950835,0.507852594 C31.1453626,1.59296052 30.3855396,2.71603497 29.7119202,3.85503087 L28.8917548,3.99954863 C28.6208293,4.04976242 28.3462093,4.10242568 28.0777467,4.16488674 C27.0322205,3.35044344 25.9091111,2.57886557 24.7207332,1.87832185 C24.2798635,1.6150056 23.7293921,1.79381571 23.5274294,2.26411079 C22.979421,3.52680409 22.5262365,4.80296939 22.1617185,6.07423578 L21.4043585,6.41838401 L20.6556189,6.7796784 C19.4376855,6.25059644 18.1606411,5.78764972 16.8294116,5.40308551 C16.3392827,5.26224193 15.8503853,5.56474944 15.7740335,6.07301106 C15.5634505,7.4336825 15.4403025,8.77720777 15.4033581,10.098688 L14.7555998,10.6191968 L14.1226193,11.1531777 C12.8086305,10.9413 11.4589288,10.8127037 10.0747457,10.7661641 C9.55998719,10.7416695 9.16714518,11.1678744 9.21763584,11.6724619 C9.34940417,13.0417064 9.56860754,14.3778833 9.8616997,15.6662959 C9.69175551,15.8830725 9.52550576,16.1059728 9.36418192,16.3288731 L8.88390486,17.0049222 C7.56006423,17.122496 6.21528845,17.3270254 4.86189231,17.6221845 C4.36437453,17.7348594 4.07990273,18.2345479 4.25846728,18.7146408 C4.73135546,20.0104017 5.26951207,21.2473758 5.8790945,22.4255629 L5.56383571,23.1885677 L5.26704911,23.962595 C4.01463431,24.4059461 2.76714542,24.939927 1.5332028,25.5620882 C1.07262941,25.7911121 0.931009254,26.3459133 1.22163845,26.7696688 C2.00485951,27.9049905 2.84226568,28.9705028 3.72277363,29.9588573 L3.61070898,30.7769748 L3.51834801,31.5987665 C2.41247928,32.3372767 1.34355494,33.165192 0.30295463,34.0727146 C-0.0886558995,34.407065 -0.0886558995,34.9814618 0.30295463,35.317037 C1.34355494,36.2233348 2.41494224,37.0500254 3.51834801,37.7897603 L3.61070898,38.611552 L3.72277363,39.4308942 C2.84226568,40.4192487 2.00485951,41.484761 1.22163845,42.618858 C0.931009254,43.0389393 1.07262941,43.5974147 1.5332028,43.8276633 C2.76714542,44.4473751 4.01463431,44.9825807 5.26704911,45.4283812 L5.56383571,46.1975096 L5.88032598,46.9629639 C5.26951207,48.141151 4.73135546,49.3781251 4.25846728,50.6726613 C4.07990273,51.1527542 4.36437453,51.6536674 4.86189231,51.7663423 C6.21528845,52.0615014 7.56129571,52.2648061 8.88390486,52.3848293 L9.36418192,53.0596537 C9.52550576,53.2837787 9.69175551,53.5042296 9.8616997,53.7210062 C9.56860754,55.0106435 9.34940417,56.3468204 9.21763584,57.7148402 C9.16714518,58.2206524 9.55998719,58.6456326 10.0747457,58.6223628 C11.4589288,58.5758231 12.8086305,58.4460021 14.1226193,58.2316749 L14.7555998,58.7705547 L15.4033581,59.2898388 C15.441534,60.611319 15.5634505,61.956069 15.7740335,63.3167405 C15.8503853,63.8250021 16.3392827,64.1262849 16.8294116,63.9854413 C18.1606411,63.5996524 19.438917,63.1367056 20.6568503,62.6076237 L21.4043585,62.9701428 L22.1617185,63.314291 C22.5262365,64.5855574 22.979421,65.8617227 23.5286609,67.1219666 C23.7293921,67.5947111 24.2798635,67.769847 24.7207332,67.5089802 C25.9103425,66.810886 27.0322205,66.0405328 28.0777467,65.2236401 C28.3462093,65.2848764 28.6208293,65.3387644 28.8917548,65.3877535 L29.7119202,65.5322712 C30.3855396,66.6712671 31.1478255,67.7955663 31.9950835,68.8818989 C32.3054164,69.2836093 32.8842118,69.3240253 33.2450354,68.957832 C34.2191358,67.9853989 35.11319,66.9627521 35.9235036,65.9168354 C36.201818,65.9058129 36.4789009,65.8960151 36.7559839,65.8764194 C37.0330668,65.860498 37.3101497,65.8409024 37.5860011,65.8127336 C38.5219257,66.7557733 39.5366649,67.6559474 40.6277559,68.5022336 C41.0316812,68.8182131 41.5981619,68.706763 41.8580041,68.2695356 C42.5611789,67.0852248 43.1744558,65.8751947 43.6990661,64.659041 C43.9650657,64.5855574 44.2298339,64.5047254 44.492139,64.4177698 C44.7569072,64.3344884 45.0204438,64.2450834 45.2815175,64.1507794 C46.4218677,64.8268286 47.6324122,65.4477651 48.9020677,65.9952179 C49.3700299,66.1985226 49.8971032,65.9572514 50.035029,65.4649112 C50.4180191,64.1422063 50.7086483,62.8219509 50.9093795,61.5114932 L51.6162488,61.0779399 L52.3120348,60.6260158 C53.5890792,60.9983327 54.9129199,61.2934918 56.2798623,61.5151674 C56.7884634,61.5984488 57.2330275,61.2310308 57.2441109,60.7203197 C57.2847497,59.3437268 57.2354905,57.9916285 57.1061851,56.6787214 L57.6837491,56.0810547 L58.2453038,55.4723655 C59.5728389,55.5176804 60.9348554,55.4821633 62.3116496,55.3572412 C62.8214822,55.3119263 63.165065,54.8502043 63.0480745,54.349291 C62.7463619,53.0082152 62.3646033,51.7087801 61.9064928,50.4656824 L62.317807,49.7479925 L62.710649,49.0168307 C64.0073971,48.7351435 65.3152285,48.3640513 66.6205969,47.8986551 C67.103337,47.7308675 67.3188459,47.1968867 67.0811703,46.742513 C66.4494213,45.5165615 65.7536353,44.3555206 65.0024327,43.2655137 L65.2191731,42.4669919 L65.4149784,41.6635711 C66.6033562,41.0646797 67.7707989,40.3800575 68.916075,39.6072549 C69.3446299,39.3231182 69.4135928,38.7523956 69.0749359,38.373955 C68.1513261,37.3415103 67.1883091,36.3898976 66.1883476,35.5203416 L66.1883476,35.5203416 Z" id="Fill-3" fill="#3493D8"></path>
                    <path d="M34.7820451,8.86293865 C44.5710769,8.86293865 53.1039994,14.2811299 57.5311688,22.2516517 L59.3352865,22.2516517 C54.7738858,13.366259 45.5057699,7.26834439 34.7820451,7.26834439 C24.0595518,7.26834439 14.7902044,13.366259 10.2288038,22.2516517 L12.034153,22.2516517 C16.4613223,14.2811299 24.9942448,8.86293865 34.7820451,8.86293865" id="Fill-6" fill="#3493D8"></path>
                    <path d="M34.7820451,60.5227713 C25.135865,60.5227713 16.7174701,55.2539967 12.2385786,47.4708581 L10.3901276,47.4708581 C15.0106393,56.176216 24.1950145,62.1210397 34.7820451,62.1210397 C45.3715387,62.1210397 54.5546824,56.176216 59.1739626,47.4708581 L57.3255117,47.4708581 C52.8466202,55.2539967 44.4282252,60.5227713 34.7820451,60.5227713" id="Fill-8" fill="#3493D8"></path>
                    <path d="M59.6702489,34.6923038 C59.6702489,35.476129 59.0335739,36.1056385 58.2503529,36.1056385 C57.4646689,36.1056385 56.8279939,35.476129 56.8279939,34.6923038 C56.8279939,33.9121529 57.4646689,33.2801939 58.2503529,33.2801939 C59.0335739,33.2801939 59.6702489,33.9121529 59.6702489,34.6923038" id="Fill-10" fill="#3493D8"></path>
                    <path d="M12.7362195,34.6923038 C12.7362195,35.476129 12.0995445,36.1056385 11.315092,36.1056385 C10.5306394,36.1056385 9.89396447,35.476129 9.89396447,34.6923038 C9.89396447,33.9121529 10.5306394,33.2801939 11.315092,33.2801939 C12.0995445,33.2801939 12.7362195,33.9121529 12.7362195,34.6923038" id="Fill-12" fill="#3493D8"></path>
                    <text id="撤出" font-family="MicrosoftYaHeiUI-Bold, Microsoft YaHei UI" font-size="18" font-weight="bold" letter-spacing="2.05144745" fill="#3F98D8">
                        <tspan x="17.4485526" y="41.5070423">调仓</tspan>
                    </text>
                </g>
            </g>
        </g>
    </g>
</svg>